<?xml version="1.0" encoding="UTF-8" standalone="no"?>
<!DOCTYPE svg PUBLIC "-//W3C//DTD SVG 1.1//EN" "http://www.w3.org/Graphics/SVG/1.1/DTD/svg11.dtd">
<svg xmlns="http://www.w3.org/2000/svg" version="1.1" viewBox="0.00 0.00 666.00 374.00">
<g stroke-width="2.00" fill="none" stroke-linecap="butt">
<path stroke="#579a7a" vector-effect="non-scaling-stroke" d="
  M 417.04 139.85
  Q 413.30 133.00 408.02 127.65
  Q 402.88 122.44 397.65 120.20
  C 388.96 116.47 379.33 115.70 370.25 116.40
  Q 353.94 117.67 339.50 116.83"
/>
<path stroke="#57675f" vector-effect="non-scaling-stroke" d="
  M 339.50 116.83
  Q 338.65 117.02 338.70 116.49"
/>
<path stroke="#00331b" vector-effect="non-scaling-stroke" d="
  M 336.75 116.65
  Q 337.88 117.15 339.50 116.83"
/>
<path stroke="#21794e" vector-effect="non-scaling-stroke" d="
  M 421.52 155.60
  Q 412.05 151.17 402.00 150.79
  Q 392.88 150.45 386.36 151.28"
/>
<path stroke="#00331b" vector-effect="non-scaling-stroke" d="
  M 386.36 151.28
  Q 384.98 149.73 381.20 150.17"
/>
<path stroke="#80331b" vector-effect="non-scaling-stroke" d="
  M 381.20 150.17
  Q 381.77 150.03 382.01 149.78"
/>
<path stroke="#00331b" vector-effect="non-scaling-stroke" d="
  M 382.01 149.78
  Q 382.27 149.90 382.46 149.89
  Q 382.95 149.84 382.84 149.36
  Q 381.86 145.16 378.12 144.36"
/>
<path stroke="#80331b" vector-effect="non-scaling-stroke" d="
  M 378.12 144.36
  Q 377.79 144.22 377.56 144.17
  Q 377.25 144.10 376.97 144.24
  C 375.15 145.16 373.48 144.12 371.58 144.16
  Q 371.11 144.16 370.79 144.51
  Q 370.35 144.97 369.02 145.43"
/>
<path stroke="#00331b" vector-effect="non-scaling-stroke" d="
  M 369.02 145.43
  Q 366.72 143.87 367.12 145.26"
/>
<path stroke="#78ab93" vector-effect="non-scaling-stroke" d="
  M 367.12 145.26
  L 366.71 144.89
  Q 366.33 144.55 365.83 144.55
  L 353.23 144.42"
/>
<path stroke="#80331b" vector-effect="non-scaling-stroke" d="
  M 353.23 144.42
  Q 347.15 143.64 341.02 144.14
  Q 339.52 144.27 338.36 144.86
  Q 336.96 145.58 336.03 146.40
  Q 334.38 147.86 334.19 150.24"
/>
<path stroke="#00331b" vector-effect="non-scaling-stroke" d="
  M 334.19 150.24
  Q 331.68 149.83 331.44 151.25"
/>
<path stroke="#21794e" vector-effect="non-scaling-stroke" d="
  M 331.44 151.25
  Q 316.82 150.56 302.03 150.63
  Q 293.40 150.68 285.03 150.22
  Q 276.25 149.74 267.45 150.31
  A 1.26 1.26 0.0 0 1 266.11 149.06
  L 266.06 128.27
  A 0.53 0.52 -0.0 0 0 265.53 127.75
  L 245.52 127.73
  Q 244.02 127.72 244.02 129.23
  L 244.03 149.54
  A 0.66 0.66 0.0 0 1 243.36 150.20
  Q 235.23 150.00 225.97 149.97
  Q 224.16 149.97 222.60 150.37
  A 1.11 1.09 -7.6 0 0 221.78 151.43
  L 221.63 171.35
  A 1.34 1.34 0.0 0 0 222.98 172.70
  L 242.95 172.60
  A 1.10 1.10 0.0 0 1 244.06 173.70
  L 244.02 193.75
  Q 244.01 194.98 245.25 194.98
  L 265.29 195.00
  Q 266.09 195.00 266.09 194.21
  L 266.10 173.30
  A 0.64 0.64 0.0 0 1 266.74 172.66
  L 274.71 172.65"
/>
<path stroke="#78ab93" vector-effect="non-scaling-stroke" d="
  M 274.71 172.65
  L 274.71 222.04"
/>
<path stroke="#21794e" vector-effect="non-scaling-stroke" d="
  M 274.71 222.04
  L 274.64 238.80
  Q 274.63 239.19 274.81 239.54
  L 275.01 239.94"
/>
<path stroke="#00331b" vector-effect="non-scaling-stroke" d="
  M 275.01 239.94
  C 274.84 240.12 274.64 240.46 274.63 240.72
  C 274.39 247.23 280.53 245.90 284.78 246.17
  Q 285.31 246.20 285.55 246.67
  C 286.29 248.09 286.79 249.74 287.82 250.94
  C 292.71 256.64 298.00 256.43 304.54 256.11
  Q 313.17 255.68 316.87 246.59
  Q 317.09 246.05 317.67 246.05
  L 340.97 246.11
  A 0.76 0.76 0.0 0 1 341.71 246.69
  C 342.16 248.57 342.57 250.52 344.05 251.90
  C 348.87 256.40 352.61 256.26 358.65 256.26
  Q 362.36 256.25 364.58 255.13
  Q 370.75 252.02 372.04 246.73
  Q 372.18 246.16 372.77 246.16
  L 393.09 245.93"
/>
<path stroke="#579a7a" vector-effect="non-scaling-stroke" d="
  M 393.09 245.93
  C 389.58 250.22 385.95 252.53 381.94 255.59
  C 373.34 262.12 361.69 266.37 351.54 268.20
  C 336.04 271.00 319.86 271.63 304.12 272.57
  Q 292.14 273.29 278.24 272.29
  Q 268.11 271.56 262.19 269.05
  Q 253.85 265.52 247.49 260.31
  Q 246.43 259.45 244.19 256.97
  Q 242.59 255.20 240.72 253.77"
/>
<path stroke="#214633" vector-effect="non-scaling-stroke" d="
  M 416.48 225.01
  C 420.70 228.82 422.86 234.14 424.54 239.20
  Q 424.76 239.87 425.47 239.87
  L 488.79 239.89"
/>
<path stroke="#57675f" vector-effect="non-scaling-stroke" d="
  M 397.41 248.09
  Q 397.32 247.20 396.79 246.12
  Q 396.56 245.67 396.06 245.57
  Q 394.36 245.20 393.09 245.93"
/>
<path stroke="#787878" vector-effect="non-scaling-stroke" d="
  M 360.53 239.76
  L 364.52 239.80"
/>
<path stroke="#214633" vector-effect="non-scaling-stroke" d="
  M 364.52 239.80
  L 393.29 239.85
  Q 393.79 239.85 393.85 239.35
  Q 394.18 236.88 395.16 233.05
  Q 397.18 225.15 404.23 222.18"
/>
<path stroke="#214633" vector-effect="non-scaling-stroke" d="
  M 321.93 221.96
  L 321.91 235.66
  Q 321.91 236.12 322.36 236.03
  L 322.66 235.97
  Q 322.83 235.94 322.83 235.77
  L 322.81 222.20
  Q 322.81 222.08 322.71 222.04
  L 322.47 221.94"
/>
<path stroke="#214633" vector-effect="non-scaling-stroke" d="
  M 359.83 221.97
  L 360.08 236.01
  A 0.80 0.80 0.0 0 1 359.28 236.83
  L 312.20 236.89
  A 0.42 0.41 0.0 0 0 311.78 237.30
  L 311.78 237.67
  Q 311.78 237.86 311.97 237.86
  L 360.47 238.01"
/>
<path stroke="#98bdab" vector-effect="non-scaling-stroke" d="
  M 360.47 238.01
  Q 360.26 239.02 360.53 239.76"
/>
<path stroke="#214633" vector-effect="non-scaling-stroke" d="
  M 360.53 239.76
  L 309.65 239.84
  Q 309.11 239.84 309.06 239.30
  C 308.43 231.78 302.95 219.82 292.83 224.18
  C 288.34 226.11 287.59 234.66 287.72 239.04
  A 0.90 0.90 0.0 0 1 286.82 239.97
  L 275.01 239.94"
/>
<path stroke="#787878" vector-effect="non-scaling-stroke" d="
  M 367.12 145.26
  Q 370.41 146.66 371.33 149.76
  Q 371.47 150.26 370.96 150.26
  L 356.61 150.21"
/>
<path stroke="#f77878" vector-effect="non-scaling-stroke" d="
  M 353.23 144.42
  Q 352.81 144.39 352.75 144.42
  Q 351.72 144.86 352.76 145.26
  Q 356.44 146.69 356.61 150.21"
/>
<path stroke="#800000" vector-effect="non-scaling-stroke" d="
  M 356.61 150.21
  L 334.19 150.24"
/>
<path stroke="#800000" vector-effect="non-scaling-stroke" d="
  M 378.12 144.36
  Q 377.90 144.33 377.72 144.39
  Q 377.24 144.56 377.62 144.89
  Q 378.42 145.58 379.36 146.03
  C 380.76 146.70 381.65 148.33 382.01 149.78"
/>
<path stroke="#800000" vector-effect="non-scaling-stroke" d="
  M 381.20 150.17
  L 373.80 150.18"
/>
<path stroke="#f77878" vector-effect="non-scaling-stroke" d="
  M 373.80 150.18
  Q 372.65 145.67 369.32 145.21"
/>
<path stroke="#800000" vector-effect="non-scaling-stroke" d="
  M 369.32 145.21
  Q 369.17 145.32 369.02 145.43"
/>
<path stroke="#787878" vector-effect="non-scaling-stroke" d="
  M 428.99 162.56
  L 392.44 162.56
  Q 392.14 162.56 392.13 162.85
  L 392.11 163.15
  A 0.43 0.42 -88.1 0 0 392.53 163.61
  L 428.34 163.63
  Q 428.80 163.63 429.02 163.23
  L 429.34 162.63"
/>
<path stroke="#787878" vector-effect="non-scaling-stroke" d="
  M 433.60 166.40
  L 394.71 166.30
  Q 393.21 166.30 394.36 167.27
  C 398.24 170.54 401.43 174.42 405.27 177.73
  Q 414.62 185.77 422.75 194.26
  Q 423.19 194.72 423.83 194.72
  L 462.90 194.63"
/>
<path stroke="#787878" vector-effect="non-scaling-stroke" d="
  M 483.02 206.95
  Q 482.12 206.51 481.74 207.75
  C 480.86 210.62 481.08 215.04 485.12 215.00
  Q 485.21 215.00 485.22 214.91
  L 485.24 214.63
  Q 485.27 214.22 484.86 214.17
  C 481.54 213.79 481.80 209.39 483.07 207.30"
/>
<path stroke="#787878" vector-effect="non-scaling-stroke" d="
  M 487.11 218.76
  Q 485.47 218.24 484.23 218.77
  Q 483.68 219.01 484.17 219.34
  Q 485.27 220.07 487.26 219.17"
/>
<path stroke="#98bdab" vector-effect="non-scaling-stroke" d="
  M 487.87 224.33
  Q 475.02 229.93 460.35 228.35
  Q 458.77 228.18 458.14 227.64
  Q 455.02 224.98 453.51 224.98
  Q 435.06 224.89 416.48 225.01"
/>
<path stroke="#787878" vector-effect="non-scaling-stroke" d="
  M 416.48 225.01
  Q 411.17 220.81 404.23 222.18"
/>
<path stroke="#98bdab" vector-effect="non-scaling-stroke" d="
  M 404.23 222.18
  L 365.18 222.05"
/>
<path stroke="#787878" vector-effect="non-scaling-stroke" d="
  M 365.18 222.05
  Q 364.97 221.77 364.64 221.81
  A 0.60 0.60 0.0 0 0 364.09 222.41
  Q 364.10 228.41 364.03 234.50
  Q 364.01 235.78 364.73 236.56"
/>
<path stroke="#98bdab" vector-effect="non-scaling-stroke" d="
  M 364.73 236.56
  L 364.79 236.91"
/>
<path stroke="#787878" vector-effect="non-scaling-stroke" d="
  M 364.79 236.91
  L 360.55 236.94
  Q 360.13 236.94 360.26 236.54
  Q 360.33 236.32 360.58 236.34
  A 0.42 0.42 0.0 0 0 361.03 235.92
  L 361.04 222.45
  Q 361.04 221.89 360.48 221.82
  Q 360.12 221.77 359.83 221.97"
/>
<path stroke="#98bdab" vector-effect="non-scaling-stroke" d="
  M 359.83 221.97
  L 322.47 221.94"
/>
<path stroke="#787878" vector-effect="non-scaling-stroke" d="
  M 322.47 221.94
  Q 322.01 221.69 321.93 221.96"
/>
<path stroke="#98bdab" vector-effect="non-scaling-stroke" d="
  M 321.93 221.96
  L 274.71 222.04"
/>
<path stroke="#787878" vector-effect="non-scaling-stroke" d="
  M 322.00 158.88
  L 322.05 162.81
  Q 322.05 163.02 322.23 163.11
  Q 322.43 163.22 322.56 163.12
  Q 322.71 163.00 322.73 162.79
  Q 322.83 161.19 322.83 158.91"
/>
<path stroke="#787878" vector-effect="non-scaling-stroke" d="
  M 369.32 145.21
  Q 371.78 147.53 372.06 149.73
  Q 372.12 150.24 372.62 150.31
  Q 373.16 150.39 373.80 150.18"
/>
<path stroke="#214633" vector-effect="non-scaling-stroke" d="
  M 331.44 151.25
  Q 358.81 152.57 386.36 151.28"
/>
<path stroke="#98bdab" vector-effect="non-scaling-stroke" d="
  M 424.39 158.78
  L 365.04 158.82"
/>
<path stroke="#214633" vector-effect="non-scaling-stroke" d="
  M 365.04 158.82
  Q 364.87 158.30 364.01 158.79"
/>
<path stroke="#98bdab" vector-effect="non-scaling-stroke" d="
  M 364.01 158.79
  L 322.83 158.91"
/>
<path stroke="#214633" vector-effect="non-scaling-stroke" d="
  M 322.83 158.91
  L 322.00 158.88"
/>
<path stroke="#98bdab" vector-effect="non-scaling-stroke" d="
  M 322.00 158.88
  L 275.31 158.83
  Q 274.80 158.83 274.80 159.33
  L 274.71 172.65"
/>
<path stroke="#98bdab" vector-effect="non-scaling-stroke" d="
  M 364.52 239.80
  Q 365.15 239.14 364.68 237.86"
/>
<path stroke="#214633" vector-effect="non-scaling-stroke" d="
  M 364.79 236.91
  L 392.50 236.88
  A 0.44 0.44 0.0 0 1 392.94 237.35
  L 392.92 237.63
  Q 392.91 237.80 392.75 237.80
  L 364.68 237.86"
/>
<path stroke="#787878" vector-effect="non-scaling-stroke" d="
  M 364.68 237.86
  L 360.47 238.01"
/>
<path stroke="#214633" vector-effect="non-scaling-stroke" d="
  M 365.18 222.05
  Q 365.01 228.77 365.27 235.49
  Q 365.31 236.51 364.73 236.56"
/>
<path stroke="#787878" vector-effect="non-scaling-stroke" d="
  M 365.04 158.82
  L 365.00 163.06
  A 0.19 0.18 90.0 0 1 364.82 163.25
  L 364.53 163.25
  A 0.47 0.46 90.0 0 1 364.08 162.79
  L 364.01 158.79"
/>
<path stroke="#214633" vector-effect="non-scaling-stroke" d="
  M 409.95 155.46
  A 0.47 0.47 0.0 0 0 409.48 154.99
  L 281.86 154.99
  A 0.47 0.47 0.0 0 0 281.39 155.46
  L 281.39 155.48
  A 0.47 0.47 0.0 0 0 281.86 155.95
  L 409.48 155.95
  A 0.47 0.47 0.0 0 0 409.95 155.48
  L 409.95 155.46"
/>
<path stroke="#800000" vector-effect="non-scaling-stroke" d="
  M 342.44 144.40
  Q 341.51 144.00 341.93 144.92
  Q 341.96 144.97 342.10 145.20
  Q 342.29 145.49 342.59 145.65
  Q 344.87 146.87 346.16 149.16
  Q 346.89 150.47 346.48 149.02
  Q 345.55 145.76 342.44 144.40"
/>
<path stroke="#787878" vector-effect="non-scaling-stroke" d="
  M 420.6009 196.2410
  A 0.43 0.43 0.0 0 0 420.5829 195.6331
  L 385.6207 162.6864
  A 0.43 0.43 0.0 0 0 385.0128 162.7045
  L 384.9991 162.7190
  A 0.43 0.43 0.0 0 0 385.0171 163.3269
  L 419.9793 196.2736
  A 0.43 0.43 0.0 0 0 420.5872 196.2555
  L 420.6009 196.2410"
/>
<path stroke="#787878" vector-effect="non-scaling-stroke" d="
  M 388.33 186.56
  L 389.58 186.22
  A 0.81 0.80 83.1 0 0 390.16 185.47
  C 390.34 180.13 395.23 181.61 398.59 180.91
  Q 398.68 180.89 398.67 180.79
  L 398.65 180.53
  Q 398.63 180.27 398.37 180.28
  L 394.32 180.40
  Q 393.82 180.41 393.42 180.11
  Q 386.14 174.65 379.89 167.53
  Q 379.36 166.92 378.55 166.92
  L 369.21 166.92
  A 0.60 0.60 0.0 0 0 368.61 167.52
  L 368.60 200.68
  Q 368.60 201.26 369.18 201.26
  L 389.07 201.25
  A 1.40 1.40 0.0 0 1 390.19 201.81
  C 392.10 204.38 395.89 203.86 398.81 203.71
  Q 398.98 203.70 399.10 203.58
  Q 399.21 203.47 399.17 203.30
  Q 399.10 203.04 398.83 202.99
  C 395.50 202.40 391.25 204.19 390.22 199.47
  Q 390.10 198.89 389.51 198.85
  Q 387.51 198.73 387.55 196.83
  C 387.62 193.65 387.49 190.52 387.63 187.43
  A 0.97 0.94 -6.9 0 1 388.33 186.56"
/>
<path stroke="#787878" vector-effect="non-scaling-stroke" d="
  M 356.54 167.38
  A 0.43 0.43 0.0 0 0 356.11 166.95
  L 326.27 166.95
  A 0.43 0.43 0.0 0 0 325.84 167.38
  L 325.84 200.82
  A 0.43 0.43 0.0 0 0 326.27 201.25
  L 356.11 201.25
  A 0.43 0.43 0.0 0 0 356.54 200.82
  L 356.54 167.38"
/>
<path stroke="#f77878" vector-effect="non-scaling-stroke" d="
  M 297.25 188.45
  A 0.39 0.39 0.0 0 1 297.64 188.84
  L 297.61 196.60
  A 0.39 0.39 0.0 0 0 298.00 196.99
  L 305.41 197.05
  A 0.39 0.39 0.0 0 0 305.80 196.66
  L 305.83 188.81
  A 0.39 0.39 0.0 0 1 306.22 188.42
  L 314.32 188.48
  A 0.39 0.39 0.0 0 0 314.71 188.09
  L 314.73 180.10
  A 0.39 0.39 0.0 0 0 314.34 179.71
  L 306.26 179.72
  A 0.39 0.39 0.0 0 1 305.87 179.33
  L 305.83 171.66
  A 0.39 0.39 0.0 0 0 305.44 171.27
  L 298.01 171.33
  A 0.39 0.39 0.0 0 0 297.62 171.72
  L 297.61 179.32
  A 0.39 0.39 0.0 0 1 297.22 179.71
  L 288.95 179.70
  A 0.39 0.39 0.0 0 0 288.56 180.09
  L 288.63 188.10
  A 0.39 0.39 0.0 0 0 289.02 188.49
  L 297.25 188.45"
/>
<path stroke="#787878" vector-effect="non-scaling-stroke" d="
  M 397.26 182.95
  Q 397.57 182.87 397.87 183.02
  Q 398.45 183.31 398.62 182.68
  Q 398.77 182.13 397.95 181.93
  A 1.09 1.00 -43.6 0 0 397.40 181.94
  C 394.65 182.75 390.90 181.05 390.96 185.76
  A 0.51 0.51 0.0 0 0 391.51 186.26
  Q 393.90 186.06 394.01 188.35
  C 394.12 190.88 393.96 193.51 394.08 196.15
  Q 394.22 198.97 391.51 198.89
  Q 390.82 198.87 391.02 199.54
  Q 391.68 201.74 393.68 201.91
  Q 396.06 202.12 398.50 201.97
  A 1.04 1.04 0.0 0 0 399.46 200.94
  L 399.51 186.69
  Q 399.51 186.05 399.06 185.61
  L 397.06 183.65
  Q 396.53 183.12 397.26 182.95"
/>
<path stroke="#787878" vector-effect="non-scaling-stroke" d="
  M 411.03 194.69
  A 0.46 0.46 0.0 0 0 410.57 194.23
  L 410.53 194.23
  A 0.46 0.46 0.0 0 0 410.07 194.69
  L 410.07 217.81
  A 0.46 0.46 0.0 0 0 410.53 218.27
  L 410.57 218.27
  A 0.46 0.46 0.0 0 0 411.03 217.81
  L 411.03 194.69"
/>
<path stroke="#787878" vector-effect="non-scaling-stroke" d="
  M 449.4801 198.7602
  A 0.41 0.41 0.0 0 0 449.0708 198.3495
  L 438.2108 198.3305
  A 0.41 0.41 0.0 0 0 437.8001 198.7398
  L 437.7999 198.8398
  A 0.41 0.41 0.0 0 0 438.2092 199.2505
  L 449.0692 199.2695
  A 0.41 0.41 0.0 0 0 449.4799 198.8602
  L 449.4801 198.7602"
/>
<path stroke="#787878" vector-effect="non-scaling-stroke" d="
  M 468.6401 198.8250
  A 0.40 0.40 0.0 0 0 468.2415 198.4237
  L 460.4215 198.3964
  A 0.40 0.40 0.0 0 0 460.0201 198.7950
  L 460.0199 198.8550
  A 0.40 0.40 0.0 0 0 460.4185 199.2563
  L 468.2385 199.2836
  A 0.40 0.40 0.0 0 0 468.6399 198.8850
  L 468.6401 198.8250"
/>
<path stroke="#787878" vector-effect="non-scaling-stroke" d="
  M 465.2594 205.8827
  A 0.43 0.43 0.0 0 0 465.1643 205.2820
  L 455.8930 198.5460
  A 0.43 0.43 0.0 0 0 455.2923 198.6412
  L 455.2806 198.6573
  A 0.43 0.43 0.0 0 0 455.3757 199.2580
  L 464.6470 205.9940
  A 0.43 0.43 0.0 0 0 465.2477 205.8988
  L 465.2594 205.8827"
/>
<path stroke="#787878" vector-effect="non-scaling-stroke" d="
  M 425.60 210.17
  C 427.24 212.78 428.22 214.97 431.75 215.00
  Q 439.64 215.08 448.08 215.02
  C 451.42 214.99 451.74 212.07 451.59 209.46
  C 451.48 207.63 450.58 206.00 448.60 205.67
  Q 436.63 203.65 424.12 201.67
  Q 423.44 201.56 422.79 201.70
  A 1.49 1.49 0.0 0 0 421.81 203.90
  Q 423.64 207.06 425.60 210.17"
/>
<path stroke="#787878" vector-effect="non-scaling-stroke" d="
  M 356.4401 205.4985
  A 0.46 0.46 0.0 0 0 355.9809 205.0377
  L 347.2009 205.0223
  A 0.46 0.46 0.0 0 0 346.7401 205.4815
  L 346.7399 205.5615
  A 0.46 0.46 0.0 0 0 347.1991 206.0223
  L 355.9791 206.0377
  A 0.46 0.46 0.0 0 0 356.4399 205.5785
  L 356.4401 205.4985"
/>
<path stroke="#787878" vector-effect="non-scaling-stroke" d="
  M 378.4100 205.5284
  A 0.47 0.47 0.0 0 0 377.9408 205.0576
  L 369.2009 205.0424
  A 0.47 0.47 0.0 0 0 368.7300 205.5116
  L 368.7300 205.5516
  A 0.47 0.47 0.0 0 0 369.1992 206.0224
  L 377.9391 206.0376
  A 0.47 0.47 0.0 0 0 378.4100 205.5684
  L 378.4100 205.5284"
/>
<path stroke="#787878" vector-effect="non-scaling-stroke" d="
  M 480.14 212.69
  Q 479.48 210.77 478.98 208.85
  A 2.58 2.57 82.7 0 0 476.49 206.92
  L 458.11 206.90
  A 2.28 2.27 3.4 0 0 455.85 208.90
  L 454.68 218.30
  A 2.36 2.35 -67.9 0 0 455.59 220.47
  L 460.11 223.94
  Q 460.52 224.26 461.04 224.26
  L 478.15 224.26
  Q 478.76 224.26 479.18 223.81
  L 482.40 220.36
  A 1.49 1.48 -29.1 0 0 482.78 219.05
  C 482.35 216.81 480.88 214.85 480.14 212.69"
/>
<path stroke="#787878" vector-effect="non-scaling-stroke" d="
  M 356.38 215.48
  A 0.26 0.26 0.0 0 0 356.12 215.22
  L 286.76 215.22
  A 0.26 0.26 0.0 0 0 286.50 215.48
  L 286.50 215.50
  A 0.26 0.26 0.0 0 0 286.76 215.76
  L 356.12 215.76
  A 0.26 0.26 0.0 0 0 356.38 215.50
  L 356.38 215.48"
/>
<path stroke="#787878" vector-effect="non-scaling-stroke" d="
  M 399.00 215.47
  A 0.26 0.26 0.0 0 0 398.74 215.21
  L 369.14 215.21
  A 0.26 0.26 0.0 0 0 368.88 215.47
  L 368.88 215.49
  A 0.26 0.26 0.0 0 0 369.14 215.75
  L 398.74 215.75
  A 0.26 0.26 0.0 0 0 399.00 215.49
  L 399.00 215.47"
/>
<path stroke="#787878" vector-effect="non-scaling-stroke" d="
  M 449.60 219.00
  A 0.47 0.47 0.0 0 0 449.13 218.53
  L 431.71 218.53
  A 0.47 0.47 0.0 0 0 431.24 219.00
  L 431.24 219.04
  A 0.47 0.47 0.0 0 0 431.71 219.51
  L 449.13 219.51
  A 0.47 0.47 0.0 0 0 449.60 219.04
  L 449.60 219.00"
/>
<path stroke="#787878" vector-effect="non-scaling-stroke" d="
  M 479.8897 226.2729
  A 0.42 0.42 0.0 0 0 479.4682 225.8544
  L 459.0683 225.9256
  A 0.42 0.42 0.0 0 0 458.6498 226.3471
  L 458.6503 226.5071
  A 0.42 0.42 0.0 0 0 459.0718 226.9256
  L 479.4717 226.8544
  A 0.42 0.42 0.0 0 0 479.8902 226.4329
  L 479.8897 226.2729"
/>
<path stroke="#787878" vector-effect="non-scaling-stroke" d="
  M 412.32 177.20
  Q 406.43 173.31 401.79 169.36
  Q 401.75 169.32 401.71 169.36
  L 401.53 169.55
  Q 401.31 169.79 401.54 170.02
  Q 405.01 173.65 409.57 177.46
  Q 416.21 183.01 423.22 190.53
  Q 424.18 191.57 425.60 191.57
  L 430.00 191.57
  Q 431.29 191.57 430.30 190.74
  Q 420.18 182.40 412.32 177.20"
/>
<path stroke="#787878" vector-effect="non-scaling-stroke" d="
  M 448.50 190.57
  C 434.16 183.34 421.10 177.87 407.40 171.42
  Q 407.27 171.36 407.20 171.48
  L 407.20 171.49
  Q 407.12 171.63 407.25 171.72
  Q 411.00 174.33 415.24 176.52
  Q 419.30 178.63 423.24 181.18
  Q 429.78 185.41 437.18 189.92
  Q 439.91 191.59 442.16 191.60
  Q 445.26 191.61 448.29 191.54
  Q 450.32 191.48 448.50 190.57"
/>
<path stroke="#787878" vector-effect="non-scaling-stroke" d="
  M 385.35 196.77
  Q 377.42 183.02 372.69 176.53
  A 0.28 0.28 0.0 0 0 372.23 176.53
  L 372.04 176.79
  A 0.85 0.84 -41.3 0 0 371.98 177.64
  L 381.57 196.92
  Q 382.01 197.79 382.98 197.80
  L 384.75 197.81
  Q 385.96 197.82 385.35 196.77"
/>
<path stroke="#787878" vector-effect="non-scaling-stroke" d="
  M 372.62 185.39
  A 0.33 0.33 0.0 0 0 371.99 185.51
  L 372.09 196.96
  A 0.33 0.33 0.0 0 0 372.34 197.28
  L 375.26 197.99
  A 0.33 0.33 0.0 0 0 375.49 197.97
  L 376.89 197.25
  A 0.33 0.33 0.0 0 0 377.05 196.84
  L 372.62 185.39"
/>
<path stroke="#787878" vector-effect="non-scaling-stroke" d="
  M 343.60 191.20
  C 342.66 189.49 342.16 187.64 341.17 185.93
  Q 336.89 178.48 332.99 171.96
  Q 332.02 170.33 330.14 170.62
  Q 329.71 170.69 329.56 171.04
  Q 328.71 173.09 329.96 174.85
  Q 336.10 183.52 341.42 192.12
  C 342.65 194.12 343.11 196.09 345.10 197.60
  Q 346.00 198.29 346.85 197.53
  A 0.50 0.49 -37.2 0 0 346.94 196.90
  Q 345.14 194.03 343.60 191.20"
/>
<path stroke="#787878" vector-effect="non-scaling-stroke" d="
  M 339.73 196.55
  L 330.54 178.23
  Q 329.39 175.94 329.20 178.50
  Q 329.12 179.58 329.46 180.52
  Q 332.21 187.99 335.59 196.30
  Q 336.25 197.92 337.99 197.85
  L 338.98 197.81
  Q 340.33 197.76 339.73 196.55"
/>
<path stroke="#787878" vector-effect="non-scaling-stroke" d="
  M 422.52 203.41
  L 427.67 211.79
  A 5.27 4.83 73.0 0 0 431.91 214.28
  L 448.16 214.31
  A 2.46 2.45 90.0 0 0 450.62 211.84
  L 450.60 208.67
  A 2.11 2.10 -85.8 0 0 448.83 206.61
  L 423.17 202.45
  A 0.64 0.64 0.0 0 0 422.52 203.41"
/>
<path stroke="#787878" vector-effect="non-scaling-stroke" d="
  M 475.4400 212.3559
  A 0.34 0.34 0.0 0 0 475.0994 212.0165
  L 459.5794 212.0435
  A 0.34 0.34 0.0 0 0 459.2400 212.3841
  L 459.2400 212.4041
  A 0.34 0.34 0.0 0 0 459.5806 212.7435
  L 475.1006 212.7165
  A 0.34 0.34 0.0 0 0 475.4400 212.3759
  L 475.4400 212.3559"
/>
<path stroke="#787878" vector-effect="non-scaling-stroke" d="
  M 476.1400 215.4740
  A 8.01 0.27 0.1 0 0 468.1305 215.1900
  A 8.01 0.27 0.1 0 0 460.1200 215.4460
  A 8.01 0.27 0.1 0 0 468.1295 215.7300
  A 8.01 0.27 0.1 0 0 476.1400 215.4740"
/>
<path stroke="#787878" vector-effect="non-scaling-stroke" d="
  M 476.96 218.94
  A 0.30 0.30 0.0 0 0 476.66 218.64
  L 460.76 218.64
  A 0.30 0.30 0.0 0 0 460.46 218.94
  L 460.46 219.08
  A 0.30 0.30 0.0 0 0 460.76 219.38
  L 476.66 219.38
  A 0.30 0.30 0.0 0 0 476.96 219.08
  L 476.96 218.94"
/>
<path stroke="#787878" vector-effect="non-scaling-stroke" d="
  M 477.98 222.25
  A 0.32 0.32 0.0 0 0 477.66 221.93
  L 461.56 221.93
  A 0.32 0.32 0.0 0 0 461.24 222.25
  L 461.24 222.29
  A 0.32 0.32 0.0 0 0 461.56 222.61
  L 477.66 222.61
  A 0.32 0.32 0.0 0 0 477.98 222.29
  L 477.98 222.25"
/>
<path stroke="#787878" vector-effect="non-scaling-stroke" d="
  M 297.9712 250.9300
  A 10.79 7.59 90.1 0 0 305.5800 240.1532
  A 10.79 7.59 90.1 0 0 298.0088 229.3500
  A 10.79 7.59 90.1 0 0 290.4000 240.1268
  A 10.79 7.59 90.1 0 0 297.9712 250.9300"
/>
<path stroke="#787878" vector-effect="non-scaling-stroke" d="
  M 409.0312 250.9000
  A 10.77 7.77 90.1 0 0 416.8200 240.1436
  A 10.77 7.77 90.1 0 0 409.0688 229.3600
  A 10.77 7.77 90.1 0 0 401.2800 240.1164
  A 10.77 7.77 90.1 0 0 409.0312 250.9000"
/>
<path stroke="#214633" vector-effect="non-scaling-stroke" d="
  M 479.5951 233.9331
  A 3.54 0.49 131.7 0 0 482.3159 231.6160
  A 3.54 0.49 131.7 0 0 484.3049 228.6469
  A 3.54 0.49 131.7 0 0 481.5841 230.9640
  A 3.54 0.49 131.7 0 0 479.5951 233.9331"
/>
<path stroke="#214633" vector-effect="non-scaling-stroke" d="
  M 458.9993 233.7994
  A 0.30 0.30 0.0 0 0 458.9609 233.3769
  L 453.5368 228.8577
  A 0.30 0.30 0.0 0 0 453.1143 228.8962
  L 452.9607 229.0806
  A 0.30 0.30 0.0 0 0 452.9991 229.5031
  L 458.4232 234.0223
  A 0.30 0.30 0.0 0 0 458.8457 233.9838
  L 458.9993 233.7994"
/>
<path stroke="#214633" vector-effect="non-scaling-stroke" d="
  M 442.9173 237.8800
  A 4.19 2.72 89.9 0 0 445.6300 233.6853
  A 4.19 2.72 89.9 0 0 442.9027 229.5000
  A 4.19 2.72 89.9 0 0 440.1900 233.6947
  A 4.19 2.72 89.9 0 0 442.9173 237.8800"
/>
<path stroke="#214633" vector-effect="non-scaling-stroke" d="
  M 488.00 237.34
  C 485.92 235.45 485.53 232.51 487.68 230.59
  A 0.53 0.53 0.0 0 0 487.68 229.80
  L 487.48 229.62
  Q 487.32 229.48 487.18 229.63
  Q 483.38 233.74 487.25 237.88
  A 0.38 0.37 47.8 0 0 487.77 237.91
  L 488.00 237.71
  A 0.25 0.24 45.7 0 0 488.00 237.34"
/>
<path stroke="#214633" vector-effect="non-scaling-stroke" d="
  M 478.13 230.73
  A 0.45 0.45 0.0 0 0 477.68 230.28
  L 463.66 230.28
  A 0.45 0.45 0.0 0 0 463.21 230.73
  L 463.21 230.77
  A 0.45 0.45 0.0 0 0 463.66 231.22
  L 477.68 231.22
  A 0.45 0.45 0.0 0 0 478.13 230.77
  L 478.13 230.73"
/>
<path stroke="#214633" vector-effect="non-scaling-stroke" d="
  M 477.9601 233.4947
  A 0.26 0.26 0.0 0 0 477.7023 233.2324
  L 463.4029 233.1076
  A 0.26 0.26 0.0 0 0 463.1406 233.3653
  L 463.1399 233.4453
  A 0.26 0.26 0.0 0 0 463.3977 233.7076
  L 477.6971 233.8324
  A 0.26 0.26 0.0 0 0 477.9594 233.5747
  L 477.9601 233.4947"
/>
<path stroke="#214633" vector-effect="non-scaling-stroke" d="
  M 478.1000 236.7631
  A 0.46 0.46 0.0 0 0 477.6408 236.3023
  L 463.5608 236.2777
  A 0.46 0.46 0.0 0 0 463.1000 236.7369
  L 463.1000 236.7769
  A 0.46 0.46 0.0 0 0 463.5592 237.2377
  L 477.6392 237.2623
  A 0.46 0.46 0.0 0 0 478.1000 236.8031
  L 478.1000 236.7631"
/>
<path stroke="#214633" vector-effect="non-scaling-stroke" d="
  M 442.8157 236.9400
  A 3.27 1.90 89.9 0 0 444.7100 233.6667
  A 3.27 1.90 89.9 0 0 442.8043 230.4000
  A 3.27 1.90 89.9 0 0 440.9100 233.6733
  A 3.27 1.90 89.9 0 0 442.8157 236.9400"
/>
</g>
<path fill="#adcebe" d="
  M 417.04 139.85
  Q 413.30 133.00 408.02 127.65
  Q 402.88 122.44 397.65 120.20
  C 388.96 116.47 379.33 115.70 370.25 116.40
  Q 353.94 117.67 339.50 116.83
  Q 338.65 117.02 338.70 116.49
  Q 350.59 113.02 362.51 109.70
  Q 370.96 107.34 379.75 107.75
  Q 391.03 108.27 400.87 116.14
  Q 412.56 125.49 417.04 139.85
  Z"
/>
<path fill="#006636" d="
  M 336.75 116.65
  Q 337.88 117.15 339.50 116.83
  Q 353.94 117.67 370.25 116.40
  C 379.33 115.70 388.96 116.47 397.65 120.20
  Q 402.88 122.44 408.02 127.65
  Q 413.30 133.00 417.04 139.85
  Q 420.68 146.16 421.52 155.60
  Q 412.05 151.17 402.00 150.79
  Q 392.88 150.45 386.36 151.28
  Q 384.98 149.73 381.20 150.17
  Q 381.77 150.03 382.01 149.78
  Q 382.27 149.90 382.46 149.89
  Q 382.95 149.84 382.84 149.36
  Q 381.86 145.16 378.12 144.36
  Q 377.79 144.22 377.56 144.17
  Q 377.25 144.10 376.97 144.24
  C 375.15 145.16 373.48 144.12 371.58 144.16
  Q 371.11 144.16 370.79 144.51
  Q 370.35 144.97 369.02 145.43
  Q 366.72 143.87 367.12 145.26
  L 366.71 144.89
  Q 366.33 144.55 365.83 144.55
  L 353.23 144.42
  Q 347.15 143.64 341.02 144.14
  Q 339.52 144.27 338.36 144.86
  Q 336.96 145.58 336.03 146.40
  Q 334.38 147.86 334.19 150.24
  Q 331.68 149.83 331.44 151.25
  Q 316.82 150.56 302.03 150.63
  Q 293.40 150.68 285.03 150.22
  Q 276.25 149.74 267.45 150.31
  A 1.26 1.26 0.0 0 1 266.11 149.06
  L 266.06 128.27
  A 0.53 0.52 -0.0 0 0 265.53 127.75
  L 245.52 127.73
  Q 244.02 127.72 244.02 129.23
  L 244.03 149.54
  A 0.66 0.66 0.0 0 1 243.36 150.20
  Q 235.23 150.00 225.97 149.97
  Q 224.16 149.97 222.60 150.37
  A 1.11 1.09 -7.6 0 0 221.78 151.43
  L 221.63 171.35
  A 1.34 1.34 0.0 0 0 222.98 172.70
  L 242.95 172.60
  A 1.10 1.10 0.0 0 1 244.06 173.70
  L 244.02 193.75
  Q 244.01 194.98 245.25 194.98
  L 265.29 195.00
  Q 266.09 195.00 266.09 194.21
  L 266.10 173.30
  A 0.64 0.64 0.0 0 1 266.74 172.66
  L 274.71 172.65
  L 274.71 222.04
  L 274.64 238.80
  Q 274.63 239.19 274.81 239.54
  L 275.01 239.94
  C 274.84 240.12 274.64 240.46 274.63 240.72
  C 274.39 247.23 280.53 245.90 284.78 246.17
  Q 285.31 246.20 285.55 246.67
  C 286.29 248.09 286.79 249.74 287.82 250.94
  C 292.71 256.64 298.00 256.43 304.54 256.11
  Q 313.17 255.68 316.87 246.59
  Q 317.09 246.05 317.67 246.05
  L 340.97 246.11
  A 0.76 0.76 0.0 0 1 341.71 246.69
  C 342.16 248.57 342.57 250.52 344.05 251.90
  C 348.87 256.40 352.61 256.26 358.65 256.26
  Q 362.36 256.25 364.58 255.13
  Q 370.75 252.02 372.04 246.73
  Q 372.18 246.16 372.77 246.16
  L 393.09 245.93
  C 389.58 250.22 385.95 252.53 381.94 255.59
  C 373.34 262.12 361.69 266.37 351.54 268.20
  C 336.04 271.00 319.86 271.63 304.12 272.57
  Q 292.14 273.29 278.24 272.29
  Q 268.11 271.56 262.19 269.05
  Q 253.85 265.52 247.49 260.31
  Q 246.43 259.45 244.19 256.97
  Q 242.59 255.20 240.72 253.77
  C 235.56 248.46 231.75 242.23 228.17 235.73
  Q 226.47 232.66 225.30 229.58
  Q 221.67 220.12 219.71 213.56
  Q 214.62 196.55 214.53 177.97
  C 214.47 165.78 216.31 151.80 223.00 142.06
  C 225.18 138.90 227.30 135.64 230.21 133.00
  Q 238.27 125.70 246.38 122.47
  Q 262.71 115.97 284.79 115.09
  C 302.22 114.39 319.45 115.79 336.75 116.65
  Z"
/>
<path fill="#000000" d="
  M 336.75 116.65
  Q 337.66 116.39 338.70 116.49
  Q 338.65 117.02 339.50 116.83
  Q 337.88 117.15 336.75 116.65
  Z"
/>
<path fill="#418b66" d="
  M 331.44 151.25
  Q 358.81 152.57 386.36 151.28
  Q 392.88 150.45 402.00 150.79
  Q 412.05 151.17 421.52 155.60
  Q 421.75 156.61 424.39 158.78
  L 365.04 158.82
  Q 364.87 158.30 364.01 158.79
  L 322.83 158.91
  L 322.00 158.88
  L 275.31 158.83
  Q 274.80 158.83 274.80 159.33
  L 274.71 172.65
  L 266.74 172.66
  A 0.64 0.64 0.0 0 0 266.10 173.30
  L 266.09 194.21
  Q 266.09 195.00 265.29 195.00
  L 245.25 194.98
  Q 244.01 194.98 244.02 193.75
  L 244.06 173.70
  A 1.10 1.10 0.0 0 0 242.95 172.60
  L 222.98 172.70
  A 1.34 1.34 0.0 0 1 221.63 171.35
  L 221.78 151.43
  A 1.11 1.09 -7.6 0 1 222.60 150.37
  Q 224.16 149.97 225.97 149.97
  Q 235.23 150.00 243.36 150.20
  A 0.66 0.66 0.0 0 0 244.03 149.54
  L 244.02 129.23
  Q 244.02 127.72 245.52 127.73
  L 265.53 127.75
  A 0.53 0.52 0.0 0 1 266.06 128.27
  L 266.11 149.06
  A 1.26 1.26 0.0 0 0 267.45 150.31
  Q 276.25 149.74 285.03 150.22
  Q 293.40 150.68 302.03 150.63
  Q 316.82 150.56 331.44 151.25
  Z
  M 409.95 155.46
  A 0.47 0.47 0.0 0 0 409.48 154.99
  L 281.86 154.99
  A 0.47 0.47 0.0 0 0 281.39 155.46
  L 281.39 155.48
  A 0.47 0.47 0.0 0 0 281.86 155.95
  L 409.48 155.95
  A 0.47 0.47 0.0 0 0 409.95 155.48
  L 409.95 155.46
  Z"
/>
<path fill="#ff0000" d="
  M 353.23 144.42
  Q 352.81 144.39 352.75 144.42
  Q 351.72 144.86 352.76 145.26
  Q 356.44 146.69 356.61 150.21
  L 334.19 150.24
  Q 334.38 147.86 336.03 146.40
  Q 336.96 145.58 338.36 144.86
  Q 339.52 144.27 341.02 144.14
  Q 347.15 143.64 353.23 144.42
  Z
  M 342.44 144.40
  Q 341.51 144.00 341.93 144.92
  Q 341.96 144.97 342.10 145.20
  Q 342.29 145.49 342.59 145.65
  Q 344.87 146.87 346.16 149.16
  Q 346.89 150.47 346.48 149.02
  Q 345.55 145.76 342.44 144.40
  Z"
/>
<path fill="#ff0000" d="
  M 378.12 144.36
  Q 377.90 144.33 377.72 144.39
  Q 377.24 144.56 377.62 144.89
  Q 378.42 145.58 379.36 146.03
  C 380.76 146.70 381.65 148.33 382.01 149.78
  Q 381.77 150.03 381.20 150.17
  L 373.80 150.18
  Q 372.65 145.67 369.32 145.21
  Q 369.17 145.32 369.02 145.43
  Q 370.35 144.97 370.79 144.51
  Q 371.11 144.16 371.58 144.16
  C 373.48 144.12 375.15 145.16 376.97 144.24
  Q 377.25 144.10 377.56 144.17
  Q 377.79 144.22 378.12 144.36
  Z"
/>
<path fill="#000000" d="
  M 342.44 144.40
  Q 345.55 145.76 346.48 149.02
  Q 346.89 150.47 346.16 149.16
  Q 344.87 146.87 342.59 145.65
  Q 342.29 145.49 342.10 145.20
  Q 341.96 144.97 341.93 144.92
  Q 341.51 144.00 342.44 144.40
  Z"
/>
<path fill="#efefef" d="
  M 353.23 144.42
  L 365.83 144.55
  Q 366.33 144.55 366.71 144.89
  L 367.12 145.26
  Q 370.41 146.66 371.33 149.76
  Q 371.47 150.26 370.96 150.26
  L 356.61 150.21
  Q 356.44 146.69 352.76 145.26
  Q 351.72 144.86 352.75 144.42
  Q 352.81 144.39 353.23 144.42
  Z"
/>
<path fill="#000000" d="
  M 369.02 145.43
  Q 369.17 145.32 369.32 145.21
  Q 371.78 147.53 372.06 149.73
  Q 372.12 150.24 372.62 150.31
  Q 373.16 150.39 373.80 150.18
  L 381.20 150.17
  Q 384.98 149.73 386.36 151.28
  Q 358.81 152.57 331.44 151.25
  Q 331.68 149.83 334.19 150.24
  L 356.61 150.21
  L 370.96 150.26
  Q 371.47 150.26 371.33 149.76
  Q 370.41 146.66 367.12 145.26
  Q 366.72 143.87 369.02 145.43
  Z"
/>
<path fill="#000000" d="
  M 378.12 144.36
  Q 381.86 145.16 382.84 149.36
  Q 382.95 149.84 382.46 149.89
  Q 382.27 149.90 382.01 149.78
  C 381.65 148.33 380.76 146.70 379.36 146.03
  Q 378.42 145.58 377.62 144.89
  Q 377.24 144.56 377.72 144.39
  Q 377.90 144.33 378.12 144.36
  Z"
/>
<path fill="#efefef" d="
  M 373.80 150.18
  Q 373.16 150.39 372.62 150.31
  Q 372.12 150.24 372.06 149.73
  Q 371.78 147.53 369.32 145.21
  Q 372.65 145.67 373.80 150.18
  Z"
/>
<rect fill="#000000" x="281.39" y="154.99" width="128.56" height="0.96" rx="0.47"/>
<path fill="#000000" d="
  M 365.04 158.82
  L 365.00 163.06
  A 0.19 0.18 90.0 0 1 364.82 163.25
  L 364.53 163.25
  A 0.47 0.46 90.0 0 1 364.08 162.79
  L 364.01 158.79
  Q 364.87 158.30 365.04 158.82
  Z"
/>
<path fill="#efefef" d="
  M 424.39 158.78
  Q 426.15 161.02 428.99 162.56
  L 392.44 162.56
  Q 392.14 162.56 392.13 162.85
  L 392.11 163.15
  A 0.43 0.42 -88.1 0 0 392.53 163.61
  L 428.34 163.63
  Q 428.80 163.63 429.02 163.23
  L 429.34 162.63
  L 433.60 166.40
  L 394.71 166.30
  Q 393.21 166.30 394.36 167.27
  C 398.24 170.54 401.43 174.42 405.27 177.73
  Q 414.62 185.77 422.75 194.26
  Q 423.19 194.72 423.83 194.72
  L 462.90 194.63
  Q 469.04 196.77 475.41 199.64
  Q 480.53 201.95 483.02 206.95
  Q 482.12 206.51 481.74 207.75
  C 480.86 210.62 481.08 215.04 485.12 215.00
  Q 485.21 215.00 485.22 214.91
  L 485.24 214.63
  Q 485.27 214.22 484.86 214.17
  C 481.54 213.79 481.80 209.39 483.07 207.30
  Q 485.98 212.63 487.11 218.76
  Q 485.47 218.24 484.23 218.77
  Q 483.68 219.01 484.17 219.34
  Q 485.27 220.07 487.26 219.17
  L 487.87 224.33
  Q 475.02 229.93 460.35 228.35
  Q 458.77 228.18 458.14 227.64
  Q 455.02 224.98 453.51 224.98
  Q 435.06 224.89 416.48 225.01
  Q 411.17 220.81 404.23 222.18
  L 365.18 222.05
  Q 364.97 221.77 364.64 221.81
  A 0.60 0.60 0.0 0 0 364.09 222.41
  Q 364.10 228.41 364.03 234.50
  Q 364.01 235.78 364.73 236.56
  L 364.79 236.91
  L 360.55 236.94
  Q 360.13 236.94 360.26 236.54
  Q 360.33 236.32 360.58 236.34
  A 0.42 0.42 0.0 0 0 361.03 235.92
  L 361.04 222.45
  Q 361.04 221.89 360.48 221.82
  Q 360.12 221.77 359.83 221.97
  L 322.47 221.94
  Q 322.01 221.69 321.93 221.96
  L 274.71 222.04
  L 274.71 172.65
  L 274.80 159.33
  Q 274.80 158.83 275.31 158.83
  L 322.00 158.88
  L 322.05 162.81
  Q 322.05 163.02 322.23 163.11
  Q 322.43 163.22 322.56 163.12
  Q 322.71 163.00 322.73 162.79
  Q 322.83 161.19 322.83 158.91
  L 364.01 158.79
  L 364.08 162.79
  A 0.47 0.46 90.0 0 0 364.53 163.25
  L 364.82 163.25
  A 0.19 0.18 90.0 0 0 365.00 163.06
  L 365.04 158.82
  L 424.39 158.78
  Z
  M 420.6009 196.2410
  A 0.43 0.43 0.0 0 0 420.5829 195.6331
  L 385.6207 162.6864
  A 0.43 0.43 0.0 0 0 385.0128 162.7045
  L 384.9991 162.7190
  A 0.43 0.43 0.0 0 0 385.0171 163.3269
  L 419.9793 196.2736
  A 0.43 0.43 0.0 0 0 420.5872 196.2555
  L 420.6009 196.2410
  Z
  M 388.33 186.56
  L 389.58 186.22
  A 0.81 0.80 83.1 0 0 390.16 185.47
  C 390.34 180.13 395.23 181.61 398.59 180.91
  Q 398.68 180.89 398.67 180.79
  L 398.65 180.53
  Q 398.63 180.27 398.37 180.28
  L 394.32 180.40
  Q 393.82 180.41 393.42 180.11
  Q 386.14 174.65 379.89 167.53
  Q 379.36 166.92 378.55 166.92
  L 369.21 166.92
  A 0.60 0.60 0.0 0 0 368.61 167.52
  L 368.60 200.68
  Q 368.60 201.26 369.18 201.26
  L 389.07 201.25
  A 1.40 1.40 0.0 0 1 390.19 201.81
  C 392.10 204.38 395.89 203.86 398.81 203.71
  Q 398.98 203.70 399.10 203.58
  Q 399.21 203.47 399.17 203.30
  Q 399.10 203.04 398.83 202.99
  C 395.50 202.40 391.25 204.19 390.22 199.47
  Q 390.10 198.89 389.51 198.85
  Q 387.51 198.73 387.55 196.83
  C 387.62 193.65 387.49 190.52 387.63 187.43
  A 0.97 0.94 -6.9 0 1 388.33 186.56
  Z
  M 356.54 167.38
  A 0.43 0.43 0.0 0 0 356.11 166.95
  L 326.27 166.95
  A 0.43 0.43 0.0 0 0 325.84 167.38
  L 325.84 200.82
  A 0.43 0.43 0.0 0 0 326.27 201.25
  L 356.11 201.25
  A 0.43 0.43 0.0 0 0 356.54 200.82
  L 356.54 167.38
  Z
  M 297.25 188.45
  A 0.39 0.39 0.0 0 1 297.64 188.84
  L 297.61 196.60
  A 0.39 0.39 0.0 0 0 298.00 196.99
  L 305.41 197.05
  A 0.39 0.39 0.0 0 0 305.80 196.66
  L 305.83 188.81
  A 0.39 0.39 0.0 0 1 306.22 188.42
  L 314.32 188.48
  A 0.39 0.39 0.0 0 0 314.71 188.09
  L 314.73 180.10
  A 0.39 0.39 0.0 0 0 314.34 179.71
  L 306.26 179.72
  A 0.39 0.39 0.0 0 1 305.87 179.33
  L 305.83 171.66
  A 0.39 0.39 0.0 0 0 305.44 171.27
  L 298.01 171.33
  A 0.39 0.39 0.0 0 0 297.62 171.72
  L 297.61 179.32
  A 0.39 0.39 0.0 0 1 297.22 179.71
  L 288.95 179.70
  A 0.39 0.39 0.0 0 0 288.56 180.09
  L 288.63 188.10
  A 0.39 0.39 0.0 0 0 289.02 188.49
  L 297.25 188.45
  Z
  M 397.26 182.95
  Q 397.57 182.87 397.87 183.02
  Q 398.45 183.31 398.62 182.68
  Q 398.77 182.13 397.95 181.93
  A 1.09 1.00 -43.6 0 0 397.40 181.94
  C 394.65 182.75 390.90 181.05 390.96 185.76
  A 0.51 0.51 0.0 0 0 391.51 186.26
  Q 393.90 186.06 394.01 188.35
  C 394.12 190.88 393.96 193.51 394.08 196.15
  Q 394.22 198.97 391.51 198.89
  Q 390.82 198.87 391.02 199.54
  Q 391.68 201.74 393.68 201.91
  Q 396.06 202.12 398.50 201.97
  A 1.04 1.04 0.0 0 0 399.46 200.94
  L 399.51 186.69
  Q 399.51 186.05 399.06 185.61
  L 397.06 183.65
  Q 396.53 183.12 397.26 182.95
  Z
  M 411.03 194.69
  A 0.46 0.46 0.0 0 0 410.57 194.23
  L 410.53 194.23
  A 0.46 0.46 0.0 0 0 410.07 194.69
  L 410.07 217.81
  A 0.46 0.46 0.0 0 0 410.53 218.27
  L 410.57 218.27
  A 0.46 0.46 0.0 0 0 411.03 217.81
  L 411.03 194.69
  Z
  M 449.4801 198.7602
  A 0.41 0.41 0.0 0 0 449.0708 198.3495
  L 438.2108 198.3305
  A 0.41 0.41 0.0 0 0 437.8001 198.7398
  L 437.7999 198.8398
  A 0.41 0.41 0.0 0 0 438.2092 199.2505
  L 449.0692 199.2695
  A 0.41 0.41 0.0 0 0 449.4799 198.8602
  L 449.4801 198.7602
  Z
  M 468.6401 198.8250
  A 0.40 0.40 0.0 0 0 468.2415 198.4237
  L 460.4215 198.3964
  A 0.40 0.40 0.0 0 0 460.0201 198.7950
  L 460.0199 198.8550
  A 0.40 0.40 0.0 0 0 460.4185 199.2563
  L 468.2385 199.2836
  A 0.40 0.40 0.0 0 0 468.6399 198.8850
  L 468.6401 198.8250
  Z
  M 465.2594 205.8827
  A 0.43 0.43 0.0 0 0 465.1643 205.2820
  L 455.8930 198.5460
  A 0.43 0.43 0.0 0 0 455.2923 198.6412
  L 455.2806 198.6573
  A 0.43 0.43 0.0 0 0 455.3757 199.2580
  L 464.6470 205.9940
  A 0.43 0.43 0.0 0 0 465.2477 205.8988
  L 465.2594 205.8827
  Z
  M 425.60 210.17
  C 427.24 212.78 428.22 214.97 431.75 215.00
  Q 439.64 215.08 448.08 215.02
  C 451.42 214.99 451.74 212.07 451.59 209.46
  C 451.48 207.63 450.58 206.00 448.60 205.67
  Q 436.63 203.65 424.12 201.67
  Q 423.44 201.56 422.79 201.70
  A 1.49 1.49 0.0 0 0 421.81 203.90
  Q 423.64 207.06 425.60 210.17
  Z
  M 356.4401 205.4985
  A 0.46 0.46 0.0 0 0 355.9809 205.0377
  L 347.2009 205.0223
  A 0.46 0.46 0.0 0 0 346.7401 205.4815
  L 346.7399 205.5615
  A 0.46 0.46 0.0 0 0 347.1991 206.0223
  L 355.9791 206.0377
  A 0.46 0.46 0.0 0 0 356.4399 205.5785
  L 356.4401 205.4985
  Z
  M 378.4100 205.5284
  A 0.47 0.47 0.0 0 0 377.9408 205.0576
  L 369.2009 205.0424
  A 0.47 0.47 0.0 0 0 368.7300 205.5116
  L 368.7300 205.5516
  A 0.47 0.47 0.0 0 0 369.1992 206.0224
  L 377.9391 206.0376
  A 0.47 0.47 0.0 0 0 378.4100 205.5684
  L 378.4100 205.5284
  Z
  M 480.14 212.69
  Q 479.48 210.77 478.98 208.85
  A 2.58 2.57 82.7 0 0 476.49 206.92
  L 458.11 206.90
  A 2.28 2.27 3.4 0 0 455.85 208.90
  L 454.68 218.30
  A 2.36 2.35 -67.9 0 0 455.59 220.47
  L 460.11 223.94
  Q 460.52 224.26 461.04 224.26
  L 478.15 224.26
  Q 478.76 224.26 479.18 223.81
  L 482.40 220.36
  A 1.49 1.48 -29.1 0 0 482.78 219.05
  C 482.35 216.81 480.88 214.85 480.14 212.69
  Z
  M 356.38 215.48
  A 0.26 0.26 0.0 0 0 356.12 215.22
  L 286.76 215.22
  A 0.26 0.26 0.0 0 0 286.50 215.48
  L 286.50 215.50
  A 0.26 0.26 0.0 0 0 286.76 215.76
  L 356.12 215.76
  A 0.26 0.26 0.0 0 0 356.38 215.50
  L 356.38 215.48
  Z
  M 399.00 215.47
  A 0.26 0.26 0.0 0 0 398.74 215.21
  L 369.14 215.21
  A 0.26 0.26 0.0 0 0 368.88 215.47
  L 368.88 215.49
  A 0.26 0.26 0.0 0 0 369.14 215.75
  L 398.74 215.75
  A 0.26 0.26 0.0 0 0 399.00 215.49
  L 399.00 215.47
  Z
  M 449.60 219.00
  A 0.47 0.47 0.0 0 0 449.13 218.53
  L 431.71 218.53
  A 0.47 0.47 0.0 0 0 431.24 219.00
  L 431.24 219.04
  A 0.47 0.47 0.0 0 0 431.71 219.51
  L 449.13 219.51
  A 0.47 0.47 0.0 0 0 449.60 219.04
  L 449.60 219.00
  Z
  M 479.8897 226.2729
  A 0.42 0.42 0.0 0 0 479.4682 225.8544
  L 459.0683 225.9256
  A 0.42 0.42 0.0 0 0 458.6498 226.3471
  L 458.6503 226.5071
  A 0.42 0.42 0.0 0 0 459.0718 226.9256
  L 479.4717 226.8544
  A 0.42 0.42 0.0 0 0 479.8902 226.4329
  L 479.8897 226.2729
  Z"
/>
<path fill="#000000" d="
  M 322.83 158.91
  Q 322.83 161.19 322.73 162.79
  Q 322.71 163.00 322.56 163.12
  Q 322.43 163.22 322.23 163.11
  Q 322.05 163.02 322.05 162.81
  L 322.00 158.88
  L 322.83 158.91
  Z"
/>
<path fill="#000000" d="
  M 428.99 162.56
  Q 429.44 162.94 429.34 162.63
  L 429.02 163.23
  Q 428.80 163.63 428.34 163.63
  L 392.53 163.61
  A 0.43 0.42 -88.1 0 1 392.11 163.15
  L 392.13 162.85
  Q 392.14 162.56 392.44 162.56
  L 428.99 162.56
  Z"
/>
<rect fill="#000000" x="-24.45" y="-0.44" transform="translate(402.80,179.48) rotate(43.3)" width="48.90" height="0.88" rx="0.43"/>
<path fill="#000000" d="
  M 433.60 166.40
  L 462.90 194.63
  L 423.83 194.72
  Q 423.19 194.72 422.75 194.26
  Q 414.62 185.77 405.27 177.73
  C 401.43 174.42 398.24 170.54 394.36 167.27
  Q 393.21 166.30 394.71 166.30
  L 433.60 166.40
  Z
  M 412.32 177.20
  Q 406.43 173.31 401.79 169.36
  Q 401.75 169.32 401.71 169.36
  L 401.53 169.55
  Q 401.31 169.79 401.54 170.02
  Q 405.01 173.65 409.57 177.46
  Q 416.21 183.01 423.22 190.53
  Q 424.18 191.57 425.60 191.57
  L 430.00 191.57
  Q 431.29 191.57 430.30 190.74
  Q 420.18 182.40 412.32 177.20
  Z
  M 448.50 190.57
  C 434.16 183.34 421.10 177.87 407.40 171.42
  Q 407.27 171.36 407.20 171.48
  L 407.20 171.49
  Q 407.12 171.63 407.25 171.72
  Q 411.00 174.33 415.24 176.52
  Q 419.30 178.63 423.24 181.18
  Q 429.78 185.41 437.18 189.92
  Q 439.91 191.59 442.16 191.60
  Q 445.26 191.61 448.29 191.54
  Q 450.32 191.48 448.50 190.57
  Z"
/>
<path fill="#000000" d="
  M 387.63 187.43
  C 387.49 190.52 387.62 193.65 387.55 196.83
  Q 387.51 198.73 389.51 198.85
  Q 390.10 198.89 390.22 199.47
  C 391.25 204.19 395.50 202.40 398.83 202.99
  Q 399.10 203.04 399.17 203.30
  Q 399.21 203.47 399.10 203.58
  Q 398.98 203.70 398.81 203.71
  C 395.89 203.86 392.10 204.38 390.19 201.81
  A 1.40 1.40 0.0 0 0 389.07 201.25
  L 369.18 201.26
  Q 368.60 201.26 368.60 200.68
  L 368.61 167.52
  A 0.60 0.60 0.0 0 1 369.21 166.92
  L 378.55 166.92
  Q 379.36 166.92 379.89 167.53
  Q 386.14 174.65 393.42 180.11
  Q 393.82 180.41 394.32 180.40
  L 398.37 180.28
  Q 398.63 180.27 398.65 180.53
  L 398.67 180.79
  Q 398.68 180.89 398.59 180.91
  C 395.23 181.61 390.34 180.13 390.16 185.47
  A 0.81 0.80 83.1 0 1 389.58 186.22
  L 388.33 186.56
  A 0.97 0.94 -6.9 0 0 387.63 187.43
  Z
  M 385.35 196.77
  Q 377.42 183.02 372.69 176.53
  A 0.28 0.28 0.0 0 0 372.23 176.53
  L 372.04 176.79
  A 0.85 0.84 -41.3 0 0 371.98 177.64
  L 381.57 196.92
  Q 382.01 197.79 382.98 197.80
  L 384.75 197.81
  Q 385.96 197.82 385.35 196.77
  Z
  M 372.62 185.39
  A 0.33 0.33 0.0 0 0 371.99 185.51
  L 372.09 196.96
  A 0.33 0.33 0.0 0 0 372.34 197.28
  L 375.26 197.99
  A 0.33 0.33 0.0 0 0 375.49 197.97
  L 376.89 197.25
  A 0.33 0.33 0.0 0 0 377.05 196.84
  L 372.62 185.39
  Z"
/>
<path fill="#000000" d="
  M 356.54 200.82
  A 0.43 0.43 0.0 0 1 356.11 201.25
  L 326.27 201.25
  A 0.43 0.43 0.0 0 1 325.84 200.82
  L 325.84 167.38
  A 0.43 0.43 0.0 0 1 326.27 166.95
  L 356.11 166.95
  A 0.43 0.43 0.0 0 1 356.54 167.38
  L 356.54 200.82
  Z
  M 343.60 191.20
  C 342.66 189.49 342.16 187.64 341.17 185.93
  Q 336.89 178.48 332.99 171.96
  Q 332.02 170.33 330.14 170.62
  Q 329.71 170.69 329.56 171.04
  Q 328.71 173.09 329.96 174.85
  Q 336.10 183.52 341.42 192.12
  C 342.65 194.12 343.11 196.09 345.10 197.60
  Q 346.00 198.29 346.85 197.53
  A 0.50 0.49 -37.2 0 0 346.94 196.90
  Q 345.14 194.03 343.60 191.20
  Z
  M 339.73 196.55
  L 330.54 178.23
  Q 329.39 175.94 329.20 178.50
  Q 329.12 179.58 329.46 180.52
  Q 332.21 187.99 335.59 196.30
  Q 336.25 197.92 337.99 197.85
  L 338.98 197.81
  Q 340.33 197.76 339.73 196.55
  Z"
/>
<path fill="#efefef" d="
  M 412.32 177.20
  Q 420.18 182.40 430.30 190.74
  Q 431.29 191.57 430.00 191.57
  L 425.60 191.57
  Q 424.18 191.57 423.22 190.53
  Q 416.21 183.01 409.57 177.46
  Q 405.01 173.65 401.54 170.02
  Q 401.31 169.79 401.53 169.55
  L 401.71 169.36
  Q 401.75 169.32 401.79 169.36
  Q 406.43 173.31 412.32 177.20
  Z"
/>
<path fill="#efefef" d="
  M 343.60 191.20
  Q 345.14 194.03 346.94 196.90
  A 0.50 0.49 -37.2 0 1 346.85 197.53
  Q 346.00 198.29 345.10 197.60
  C 343.11 196.09 342.65 194.12 341.42 192.12
  Q 336.10 183.52 329.96 174.85
  Q 328.71 173.09 329.56 171.04
  Q 329.71 170.69 330.14 170.62
  Q 332.02 170.33 332.99 171.96
  Q 336.89 178.48 341.17 185.93
  C 342.16 187.64 342.66 189.49 343.60 191.20
  Z"
/>
<path fill="#ff0000" d="
  M 297.25 188.45
  L 289.02 188.49
  A 0.39 0.39 0.0 0 1 288.63 188.10
  L 288.56 180.09
  A 0.39 0.39 0.0 0 1 288.95 179.70
  L 297.22 179.71
  A 0.39 0.39 0.0 0 0 297.61 179.32
  L 297.62 171.72
  A 0.39 0.39 0.0 0 1 298.01 171.33
  L 305.44 171.27
  A 0.39 0.39 0.0 0 1 305.83 171.66
  L 305.87 179.33
  A 0.39 0.39 0.0 0 0 306.26 179.72
  L 314.34 179.71
  A 0.39 0.39 0.0 0 1 314.73 180.10
  L 314.71 188.09
  A 0.39 0.39 0.0 0 1 314.32 188.48
  L 306.22 188.42
  A 0.39 0.39 0.0 0 0 305.83 188.81
  L 305.80 196.66
  A 0.39 0.39 0.0 0 1 305.41 197.05
  L 298.00 196.99
  A 0.39 0.39 0.0 0 1 297.61 196.60
  L 297.64 188.84
  A 0.39 0.39 0.0 0 0 297.25 188.45
  Z"
/>
<path fill="#efefef" d="
  M 407.40 171.42
  C 421.10 177.87 434.16 183.34 448.50 190.57
  Q 450.32 191.48 448.29 191.54
  Q 445.26 191.61 442.16 191.60
  Q 439.91 191.59 437.18 189.92
  Q 429.78 185.41 423.24 181.18
  Q 419.30 178.63 415.24 176.52
  Q 411.00 174.33 407.25 171.72
  Q 407.12 171.63 407.20 171.49
  L 407.20 171.48
  Q 407.27 171.36 407.40 171.42
  Z"
/>
<path fill="#efefef" d="
  M 385.35 196.77
  Q 385.96 197.82 384.75 197.81
  L 382.98 197.80
  Q 382.01 197.79 381.57 196.92
  L 371.98 177.64
  A 0.85 0.84 -41.3 0 1 372.04 176.79
  L 372.23 176.53
  A 0.28 0.28 0.0 0 1 372.69 176.53
  Q 377.42 183.02 385.35 196.77
  Z"
/>
<path fill="#efefef" d="
  M 339.73 196.55
  Q 340.33 197.76 338.98 197.81
  L 337.99 197.85
  Q 336.25 197.92 335.59 196.30
  Q 332.21 187.99 329.46 180.52
  Q 329.12 179.58 329.20 178.50
  Q 329.39 175.94 330.54 178.23
  L 339.73 196.55
  Z"
/>
<path fill="#000000" d="
  M 397.06 183.65
  L 399.06 185.61
  Q 399.51 186.05 399.51 186.69
  L 399.46 200.94
  A 1.04 1.04 0.0 0 1 398.50 201.97
  Q 396.06 202.12 393.68 201.91
  Q 391.68 201.74 391.02 199.54
  Q 390.82 198.87 391.51 198.89
  Q 394.22 198.97 394.08 196.15
  C 393.96 193.51 394.12 190.88 394.01 188.35
  Q 393.90 186.06 391.51 186.26
  A 0.51 0.51 0.0 0 1 390.96 185.76
  C 390.90 181.05 394.65 182.75 397.40 181.94
  A 1.09 1.00 -43.6 0 1 397.95 181.93
  Q 398.77 182.13 398.62 182.68
  Q 398.45 183.31 397.87 183.02
  Q 397.57 182.87 397.26 182.95
  Q 396.53 183.12 397.06 183.65
  Z"
/>
<path fill="#efefef" d="
  M 372.62 185.39
  L 377.05 196.84
  A 0.33 0.33 0.0 0 1 376.89 197.25
  L 375.49 197.97
  A 0.33 0.33 0.0 0 1 375.26 197.99
  L 372.34 197.28
  A 0.33 0.33 0.0 0 1 372.09 196.96
  L 371.99 185.51
  A 0.33 0.33 0.0 0 1 372.62 185.39
  Z"
/>
<rect fill="#000000" x="410.07" y="194.23" width="0.96" height="24.04" rx="0.46"/>
<rect fill="#000000" x="-5.84" y="-0.46" transform="translate(443.64,198.80) rotate(0.1)" width="11.68" height="0.92" rx="0.41"/>
<rect fill="#000000" x="-4.31" y="-0.43" transform="translate(464.33,198.84) rotate(0.2)" width="8.62" height="0.86" rx="0.40"/>
<rect fill="#000000" x="-6.16" y="-0.44" transform="translate(460.27,202.27) rotate(36.0)" width="12.32" height="0.88" rx="0.43"/>
<path fill="#000000" d="
  M 425.60 210.17
  Q 423.64 207.06 421.81 203.90
  A 1.49 1.49 0.0 0 1 422.79 201.70
  Q 423.44 201.56 424.12 201.67
  Q 436.63 203.65 448.60 205.67
  C 450.58 206.00 451.48 207.63 451.59 209.46
  C 451.74 212.07 451.42 214.99 448.08 215.02
  Q 439.64 215.08 431.75 215.00
  C 428.22 214.97 427.24 212.78 425.60 210.17
  Z
  M 422.52 203.41
  L 427.67 211.79
  A 5.27 4.83 73.0 0 0 431.91 214.28
  L 448.16 214.31
  A 2.46 2.45 90.0 0 0 450.62 211.84
  L 450.60 208.67
  A 2.11 2.10 -85.8 0 0 448.83 206.61
  L 423.17 202.45
  A 0.64 0.64 0.0 0 0 422.52 203.41
  Z"
/>
<path fill="#efefef" d="
  M 427.67 211.79
  L 422.52 203.41
  A 0.64 0.64 0.0 0 1 423.17 202.45
  L 448.83 206.61
  A 2.11 2.10 -85.8 0 1 450.60 208.67
  L 450.62 211.84
  A 2.46 2.45 90.0 0 1 448.16 214.31
  L 431.91 214.28
  A 5.27 4.83 73.0 0 1 427.67 211.79
  Z"
/>
<rect fill="#000000" x="-4.85" y="-0.50" transform="translate(351.59,205.53) rotate(0.1)" width="9.70" height="1.00" rx="0.46"/>
<rect fill="#000000" x="-4.84" y="-0.49" transform="translate(373.57,205.54) rotate(0.1)" width="9.68" height="0.98" rx="0.47"/>
<path fill="#000000" d="
  M 483.02 206.95
  Q 483.40 207.08 483.07 207.30
  C 481.80 209.39 481.54 213.79 484.86 214.17
  Q 485.27 214.22 485.24 214.63
  L 485.22 214.91
  Q 485.21 215.00 485.12 215.00
  C 481.08 215.04 480.86 210.62 481.74 207.75
  Q 482.12 206.51 483.02 206.95
  Z"
/>
<path fill="#000000" d="
  M 480.14 212.69
  C 480.88 214.85 482.35 216.81 482.78 219.05
  A 1.49 1.48 -29.1 0 1 482.40 220.36
  L 479.18 223.81
  Q 478.76 224.26 478.15 224.26
  L 461.04 224.26
  Q 460.52 224.26 460.11 223.94
  L 455.59 220.47
  A 2.36 2.35 -67.9 0 1 454.68 218.30
  L 455.85 208.90
  A 2.28 2.27 3.4 0 1 458.11 206.90
  L 476.49 206.92
  A 2.58 2.57 82.7 0 1 478.98 208.85
  Q 479.48 210.77 480.14 212.69
  Z
  M 475.4400 212.3559
  A 0.34 0.34 0.0 0 0 475.0994 212.0165
  L 459.5794 212.0435
  A 0.34 0.34 0.0 0 0 459.2400 212.3841
  L 459.2400 212.4041
  A 0.34 0.34 0.0 0 0 459.5806 212.7435
  L 475.1006 212.7165
  A 0.34 0.34 0.0 0 0 475.4400 212.3759
  L 475.4400 212.3559
  Z
  M 476.1400 215.4740
  A 8.01 0.27 0.1 0 0 468.1305 215.1900
  A 8.01 0.27 0.1 0 0 460.1200 215.4460
  A 8.01 0.27 0.1 0 0 468.1295 215.7300
  A 8.01 0.27 0.1 0 0 476.1400 215.4740
  Z
  M 476.96 218.94
  A 0.30 0.30 0.0 0 0 476.66 218.64
  L 460.76 218.64
  A 0.30 0.30 0.0 0 0 460.46 218.94
  L 460.46 219.08
  A 0.30 0.30 0.0 0 0 460.76 219.38
  L 476.66 219.38
  A 0.30 0.30 0.0 0 0 476.96 219.08
  L 476.96 218.94
  Z
  M 477.98 222.25
  A 0.32 0.32 0.0 0 0 477.66 221.93
  L 461.56 221.93
  A 0.32 0.32 0.0 0 0 461.24 222.25
  L 461.24 222.29
  A 0.32 0.32 0.0 0 0 461.56 222.61
  L 477.66 222.61
  A 0.32 0.32 0.0 0 0 477.98 222.29
  L 477.98 222.25
  Z"
/>
<rect fill="#efefef" x="-8.10" y="-0.35" transform="translate(467.34,212.38) rotate(-0.1)" width="16.20" height="0.70" rx="0.34"/>
<rect fill="#000000" x="286.50" y="215.22" width="69.88" height="0.54" rx="0.26"/>
<rect fill="#000000" x="368.88" y="215.21" width="30.12" height="0.54" rx="0.26"/>
<ellipse fill="#efefef" cx="0.00" cy="0.00" transform="translate(468.13,215.46) rotate(0.1)" rx="8.01" ry="0.27"/>
<rect fill="#000000" x="431.24" y="218.53" width="18.36" height="0.98" rx="0.47"/>
<rect fill="#efefef" x="460.46" y="218.64" width="16.50" height="0.74" rx="0.30"/>
<path fill="#000000" d="
  M 487.11 218.76
  Q 487.13 218.93 487.26 219.17
  Q 485.27 220.07 484.17 219.34
  Q 483.68 219.01 484.23 218.77
  Q 485.47 218.24 487.11 218.76
  Z"
/>
<path fill="#418b66" d="
  M 321.93 221.96
  L 321.91 235.66
  Q 321.91 236.12 322.36 236.03
  L 322.66 235.97
  Q 322.83 235.94 322.83 235.77
  L 322.81 222.20
  Q 322.81 222.08 322.71 222.04
  L 322.47 221.94
  L 359.83 221.97
  L 360.08 236.01
  A 0.80 0.80 0.0 0 1 359.28 236.83
  L 312.20 236.89
  A 0.42 0.41 0.0 0 0 311.78 237.30
  L 311.78 237.67
  Q 311.78 237.86 311.97 237.86
  L 360.47 238.01
  Q 360.26 239.02 360.53 239.76
  L 309.65 239.84
  Q 309.11 239.84 309.06 239.30
  C 308.43 231.78 302.95 219.82 292.83 224.18
  C 288.34 226.11 287.59 234.66 287.72 239.04
  A 0.90 0.90 0.0 0 1 286.82 239.97
  L 275.01 239.94
  L 274.81 239.54
  Q 274.63 239.19 274.64 238.80
  L 274.71 222.04
  L 321.93 221.96
  Z"
/>
<path fill="#000000" d="
  M 321.93 221.96
  Q 322.01 221.69 322.47 221.94
  L 322.71 222.04
  Q 322.81 222.08 322.81 222.20
  L 322.83 235.77
  Q 322.83 235.94 322.66 235.97
  L 322.36 236.03
  Q 321.91 236.12 321.91 235.66
  L 321.93 221.96
  Z"
/>
<path fill="#000000" d="
  M 364.79 236.91
  L 392.50 236.88
  A 0.44 0.44 0.0 0 1 392.94 237.35
  L 392.92 237.63
  Q 392.91 237.80 392.75 237.80
  L 364.68 237.86
  L 360.47 238.01
  L 311.97 237.86
  Q 311.78 237.86 311.78 237.67
  L 311.78 237.30
  A 0.42 0.41 0.0 0 1 312.20 236.89
  L 359.28 236.83
  A 0.80 0.80 0.0 0 0 360.08 236.01
  L 359.83 221.97
  Q 360.12 221.77 360.48 221.82
  Q 361.04 221.89 361.04 222.45
  L 361.03 235.92
  A 0.42 0.42 0.0 0 1 360.58 236.34
  Q 360.33 236.32 360.26 236.54
  Q 360.13 236.94 360.55 236.94
  L 364.79 236.91
  Z"
/>
<path fill="#000000" d="
  M 365.18 222.05
  Q 365.01 228.77 365.27 235.49
  Q 365.31 236.51 364.73 236.56
  Q 364.01 235.78 364.03 234.50
  Q 364.10 228.41 364.09 222.41
  A 0.60 0.60 0.0 0 1 364.64 221.81
  Q 364.97 221.77 365.18 222.05
  Z"
/>
<path fill="#000000" d="
  M 416.48 225.01
  C 420.70 228.82 422.86 234.14 424.54 239.20
  Q 424.76 239.87 425.47 239.87
  L 488.79 239.89
  Q 488.15 243.96 483.74 245.37
  Q 483.23 245.53 483.09 246.04
  C 481.44 252.05 476.80 256.34 470.29 256.02
  C 467.16 255.86 463.07 256.60 460.27 255.20
  C 457.39 253.77 454.51 251.52 453.25 248.52
  Q 452.71 247.25 452.14 245.99
  Q 451.88 245.42 451.26 245.42
  L 428.74 245.42
  A 1.12 1.11 -79.7 0 0 427.70 246.15
  C 426.52 249.35 425.40 251.37 422.42 253.69
  C 418.27 256.92 413.18 256.01 408.35 255.98
  C 403.44 255.94 399.64 252.22 397.41 248.09
  Q 397.32 247.20 396.79 246.12
  Q 396.56 245.67 396.06 245.57
  Q 394.36 245.20 393.09 245.93
  L 372.77 246.16
  Q 372.18 246.16 372.04 246.73
  Q 370.75 252.02 364.58 255.13
  Q 362.36 256.25 358.65 256.26
  C 352.61 256.26 348.87 256.40 344.05 251.90
  C 342.57 250.52 342.16 248.57 341.71 246.69
  A 0.76 0.76 0.0 0 0 340.97 246.11
  L 317.67 246.05
  Q 317.09 246.05 316.87 246.59
  Q 313.17 255.68 304.54 256.11
  C 298.00 256.43 292.71 256.64 287.82 250.94
  C 286.79 249.74 286.29 248.09 285.55 246.67
  Q 285.31 246.20 284.78 246.17
  C 280.53 245.90 274.39 247.23 274.63 240.72
  C 274.64 240.46 274.84 240.12 275.01 239.94
  L 286.82 239.97
  A 0.90 0.90 0.0 0 0 287.72 239.04
  C 287.59 234.66 288.34 226.11 292.83 224.18
  C 302.95 219.82 308.43 231.78 309.06 239.30
  Q 309.11 239.84 309.65 239.84
  L 360.53 239.76
  L 364.52 239.80
  L 393.29 239.85
  Q 393.79 239.85 393.85 239.35
  Q 394.18 236.88 395.16 233.05
  Q 397.18 225.15 404.23 222.18
  Q 411.17 220.81 416.48 225.01
  Z
  M 297.9712 250.9300
  A 10.79 7.59 90.1 0 0 305.5800 240.1532
  A 10.79 7.59 90.1 0 0 298.0088 229.3500
  A 10.79 7.59 90.1 0 0 290.4000 240.1268
  A 10.79 7.59 90.1 0 0 297.9712 250.9300
  Z
  M 409.0312 250.9000
  A 10.77 7.77 90.1 0 0 416.8200 240.1436
  A 10.77 7.77 90.1 0 0 409.0688 229.3600
  A 10.77 7.77 90.1 0 0 401.2800 240.1164
  A 10.77 7.77 90.1 0 0 409.0312 250.9000
  Z"
/>
<rect fill="#efefef" x="461.24" y="221.93" width="16.74" height="0.68" rx="0.32"/>
<path fill="#418b66" d="
  M 365.18 222.05
  L 404.23 222.18
  Q 397.18 225.15 395.16 233.05
  Q 394.18 236.88 393.85 239.35
  Q 393.79 239.85 393.29 239.85
  L 364.52 239.80
  Q 365.15 239.14 364.68 237.86
  L 392.75 237.80
  Q 392.91 237.80 392.92 237.63
  L 392.94 237.35
  A 0.44 0.44 0.0 0 0 392.50 236.88
  L 364.79 236.91
  L 364.73 236.56
  Q 365.31 236.51 365.27 235.49
  Q 365.01 228.77 365.18 222.05
  Z"
/>
<path fill="#418b66" d="
  M 487.87 224.33
  Q 488.54 225.55 488.56 225.75
  Q 489.15 232.69 488.79 239.89
  L 425.47 239.87
  Q 424.76 239.87 424.54 239.20
  C 422.86 234.14 420.70 228.82 416.48 225.01
  Q 435.06 224.89 453.51 224.98
  Q 455.02 224.98 458.14 227.64
  Q 458.77 228.18 460.35 228.35
  Q 475.02 229.93 487.87 224.33
  Z
  M 479.5951 233.9331
  A 3.54 0.49 131.7 0 0 482.3159 231.6160
  A 3.54 0.49 131.7 0 0 484.3049 228.6469
  A 3.54 0.49 131.7 0 0 481.5841 230.9640
  A 3.54 0.49 131.7 0 0 479.5951 233.9331
  Z
  M 458.9993 233.7994
  A 0.30 0.30 0.0 0 0 458.9609 233.3769
  L 453.5368 228.8577
  A 0.30 0.30 0.0 0 0 453.1143 228.8962
  L 452.9607 229.0806
  A 0.30 0.30 0.0 0 0 452.9991 229.5031
  L 458.4232 234.0223
  A 0.30 0.30 0.0 0 0 458.8457 233.9838
  L 458.9993 233.7994
  Z
  M 442.9173 237.8800
  A 4.19 2.72 89.9 0 0 445.6300 233.6853
  A 4.19 2.72 89.9 0 0 442.9027 229.5000
  A 4.19 2.72 89.9 0 0 440.1900 233.6947
  A 4.19 2.72 89.9 0 0 442.9173 237.8800
  Z
  M 488.00 237.34
  C 485.92 235.45 485.53 232.51 487.68 230.59
  A 0.53 0.53 0.0 0 0 487.68 229.80
  L 487.48 229.62
  Q 487.32 229.48 487.18 229.63
  Q 483.38 233.74 487.25 237.88
  A 0.38 0.37 47.8 0 0 487.77 237.91
  L 488.00 237.71
  A 0.25 0.24 45.7 0 0 488.00 237.34
  Z
  M 478.13 230.73
  A 0.45 0.45 0.0 0 0 477.68 230.28
  L 463.66 230.28
  A 0.45 0.45 0.0 0 0 463.21 230.73
  L 463.21 230.77
  A 0.45 0.45 0.0 0 0 463.66 231.22
  L 477.68 231.22
  A 0.45 0.45 0.0 0 0 478.13 230.77
  L 478.13 230.73
  Z
  M 477.9601 233.4947
  A 0.26 0.26 0.0 0 0 477.7023 233.2324
  L 463.4029 233.1076
  A 0.26 0.26 0.0 0 0 463.1406 233.3653
  L 463.1399 233.4453
  A 0.26 0.26 0.0 0 0 463.3977 233.7076
  L 477.6971 233.8324
  A 0.26 0.26 0.0 0 0 477.9594 233.5747
  L 477.9601 233.4947
  Z
  M 478.1000 236.7631
  A 0.46 0.46 0.0 0 0 477.6408 236.3023
  L 463.5608 236.2777
  A 0.46 0.46 0.0 0 0 463.1000 236.7369
  L 463.1000 236.7769
  A 0.46 0.46 0.0 0 0 463.5592 237.2377
  L 477.6392 237.2623
  A 0.46 0.46 0.0 0 0 478.1000 236.8031
  L 478.1000 236.7631
  Z"
/>
<rect fill="#000000" x="-10.62" y="-0.50" transform="translate(469.27,226.39) rotate(-0.2)" width="21.24" height="1.00" rx="0.42"/>
<ellipse fill="#000000" cx="0.00" cy="0.00" transform="translate(481.95,231.29) rotate(131.7)" rx="3.54" ry="0.49"/>
<rect fill="#000000" x="-3.83" y="-0.42" transform="translate(455.98,231.44) rotate(39.8)" width="7.66" height="0.84" rx="0.30"/>
<ellipse fill="#efefef" cx="0.00" cy="0.00" transform="translate(297.99,240.14) rotate(90.1)" rx="10.79" ry="7.59"/>
<ellipse fill="#efefef" cx="0.00" cy="0.00" transform="translate(409.05,240.13) rotate(90.1)" rx="10.77" ry="7.77"/>
<path fill="#000000" d="
  M 442.9173 237.8800
  A 4.19 2.72 89.9 0 1 440.1900 233.6947
  A 4.19 2.72 89.9 0 1 442.9027 229.5000
  A 4.19 2.72 89.9 0 1 445.6300 233.6853
  A 4.19 2.72 89.9 0 1 442.9173 237.8800
  Z
  M 442.8157 236.9400
  A 3.27 1.90 89.9 0 0 444.7100 233.6667
  A 3.27 1.90 89.9 0 0 442.8043 230.4000
  A 3.27 1.90 89.9 0 0 440.9100 233.6733
  A 3.27 1.90 89.9 0 0 442.8157 236.9400
  Z"
/>
<path fill="#000000" d="
  M 487.68 230.59
  C 485.53 232.51 485.92 235.45 488.00 237.34
  A 0.25 0.24 45.7 0 1 488.00 237.71
  L 487.77 237.91
  A 0.38 0.37 47.8 0 1 487.25 237.88
  Q 483.38 233.74 487.18 229.63
  Q 487.32 229.48 487.48 229.62
  L 487.68 229.80
  A 0.53 0.53 0.0 0 1 487.68 230.59
  Z"
/>
<ellipse fill="#418b66" cx="0.00" cy="0.00" transform="translate(442.81,233.67) rotate(89.9)" rx="3.27" ry="1.90"/>
<rect fill="#000000" x="463.21" y="230.28" width="14.92" height="0.94" rx="0.45"/>
<rect fill="#000000" x="-7.41" y="-0.30" transform="translate(470.55,233.47) rotate(0.5)" width="14.82" height="0.60" rx="0.26"/>
<rect fill="#000000" x="-7.50" y="-0.48" transform="translate(470.60,236.77) rotate(0.1)" width="15.00" height="0.96" rx="0.46"/>
<path fill="#efefef" d="
  M 364.68 237.86
  Q 365.15 239.14 364.52 239.80
  L 360.53 239.76
  Q 360.26 239.02 360.47 238.01
  L 364.68 237.86
  Z"
/>
<path fill="#adcebe" d="
  M 397.41 248.09
  Q 385.81 257.21 377.01 261.82
  Q 367.78 266.65 355.71 270.18
  Q 342.45 274.06 342.37 274.08
  Q 330.76 277.67 319.02 280.78
  C 314.57 281.96 310.00 282.58 305.48 283.48
  Q 283.59 287.84 265.75 277.18
  C 261.64 274.73 256.07 271.07 252.07 267.27
  Q 245.67 261.19 240.72 253.77
  Q 242.59 255.20 244.19 256.97
  Q 246.43 259.45 247.49 260.31
  Q 253.85 265.52 262.19 269.05
  Q 268.11 271.56 278.24 272.29
  Q 292.14 273.29 304.12 272.57
  C 319.86 271.63 336.04 271.00 351.54 268.20
  C 361.69 266.37 373.34 262.12 381.94 255.59
  C 385.95 252.53 389.58 250.22 393.09 245.93
  Q 394.36 245.20 396.06 245.57
  Q 396.56 245.67 396.79 246.12
  Q 397.32 247.20 397.41 248.09
  Z"
/>
</svg>
