<?xml version="1.0" encoding="UTF-8" standalone="no"?>
<!DOCTYPE svg PUBLIC "-//W3C//DTD SVG 1.1//EN" "http://www.w3.org/Graphics/SVG/1.1/DTD/svg11.dtd">
<svg xmlns="http://www.w3.org/2000/svg" version="1.1" viewBox="0.00 0.00 666.00 374.00">
<path fill="#006536" d="
  M 450.10 214.83
  Q 454.82 187.59 459.75 158.76
  C 460.38 155.06 460.63 151.22 461.26 147.57
  Q 464.79 126.84 468.81 103.46
  Q 469.24 100.94 469.66 103.46
  Q 474.06 130.31 478.70 157.87
  C 479.29 161.42 479.56 165.11 480.09 168.53
  Q 484.21 194.92 488.86 221.21
  Q 489.11 222.58 489.56 221.26
  L 496.75 200.26
  Q 496.93 199.72 497.50 199.79
  L 577.23 209.27
  Q 577.44 209.29 577.42 209.50
  L 577.41 209.77
  Q 577.40 209.83 577.34 209.83
  Q 540.80 209.51 504.22 209.73
  Q 503.76 209.73 503.58 210.15
  Q 501.59 214.71 500.33 219.39
  Q 499.01 224.28 497.56 228.60
  Q 491.48 246.67 486.03 262.35
  Q 485.80 263.01 485.67 262.32
  Q 482.47 245.57 480.34 230.66
  Q 478.33 216.66 477.39 210.88
  Q 473.40 186.58 469.36 162.90
  Q 469.04 161.03 468.72 162.89
  Q 464.98 184.56 461.23 207.28
  Q 460.58 211.18 459.93 215.37
  Q 455.75 241.92 450.97 268.41
  Q 450.70 269.92 450.39 268.42
  Q 447.16 252.70 443.48 234.76
  Q 441.66 225.91 439.75 215.14
  Q 437.59 202.92 434.83 191.18
  Q 434.68 190.53 434.34 191.10
  L 423.51 209.37
  A 0.66 0.65 15.4 0 1 422.95 209.68
  L 363.31 209.66
  Q 362.95 209.66 362.95 209.30
  L 362.94 164.28
  A 2.75 2.72 -63.4 0 0 362.41 162.66
  Q 359.29 158.34 356.90 164.55
  A 2.64 2.58 -34.9 0 0 356.72 165.50
  L 356.72 209.01
  A 0.49 0.48 -90.0 0 1 356.24 209.50
  L 342.76 209.51
  A 0.50 0.49 90.0 0 1 342.27 209.01
  L 342.28 141.33
  Q 342.28 140.70 342.92 140.70
  L 356.09 140.70
  A 0.64 0.63 90.0 0 1 356.72 141.34
  L 356.72 155.75
  Q 356.72 156.73 357.15 155.85
  C 359.52 151.05 363.95 149.71 368.94 151.16
  C 374.89 152.89 377.17 158.73 377.14 164.68
  Q 377.02 186.52 377.12 206.68
  A 0.32 0.31 -4.7 0 0 377.49 206.99
  L 417.61 199.75
  Q 418.01 199.68 418.21 199.33
  L 438.81 163.77
  Q 439.49 162.60 439.63 163.95
  Q 440.20 169.33 441.24 174.46
  Q 445.37 194.79 449.55 214.84
  Q 449.85 216.28 450.10 214.83
  Z"
/>
<rect fill="#006536" x="160.01" y="140.70" width="14.10" height="68.80" rx="0.40"/>
<path fill="#006536" d="
  M 101.42 183.00
  L 101.42 208.79
  Q 101.42 209.51 100.70 209.51
  L 88.75 209.50
  Q 88.00 209.50 88.00 208.75
  L 88.00 141.52
  Q 88.00 140.99 88.53 140.99
  Q 98.23 140.93 106.70 141.02
  C 116.35 141.13 120.16 148.34 120.90 156.81
  Q 121.88 168.04 119.22 174.87
  C 116.51 181.84 109.03 182.87 102.36 182.16
  Q 101.42 182.06 101.42 183.00
  Z
  M 101.41 154.09
  L 101.41 169.65
  A 0.47 0.47 0.0 0 0 101.88 170.12
  L 103.15 170.12
  A 4.57 4.34 -90.0 0 0 107.49 165.55
  L 107.49 158.19
  A 4.57 4.34 90.0 0 0 103.15 153.62
  L 101.88 153.62
  A 0.47 0.47 0.0 0 0 101.41 154.09
  Z"
/>
<path fill="#006536" d="
  M 263.52 182.24
  A 0.39 0.39 0.0 0 0 263.12 182.62
  L 263.12 208.94
  Q 263.12 209.51 262.55 209.51
  L 250.02 209.51
  Q 249.29 209.51 249.29 208.77
  L 249.29 141.24
  A 0.32 0.31 -0.0 0 1 249.61 140.93
  Q 256.85 141.12 264.38 140.92
  Q 271.36 140.73 274.91 142.48
  C 284.84 147.38 283.84 165.67 281.26 174.19
  Q 279.93 178.57 275.42 180.84
  C 271.94 182.60 267.39 182.32 263.52 182.24
  Z
  M 263.08 154.02
  L 263.16 169.70
  A 0.41 0.41 0.0 0 0 263.57 170.10
  L 264.43 170.10
  A 5.23 4.61 89.7 0 0 269.02 164.84
  L 268.98 158.80
  A 5.23 4.61 89.7 0 0 264.35 153.60
  L 263.49 153.60
  A 0.41 0.41 0.0 0 0 263.08 154.02
  Z"
/>
<path fill="#006536" d="
  M 323.00 152.90
  L 323.00 141.49
  A 0.51 0.51 0.0 0 1 323.51 140.98
  L 335.84 140.99
  A 0.61 0.60 -0.0 0 1 336.45 141.59
  L 336.43 152.72
  Q 336.43 153.52 337.22 153.52
  L 339.78 153.55
  Q 340.50 153.56 340.50 154.28
  L 340.50 163.24
  Q 340.50 163.98 339.76 163.98
  L 337.03 163.97
  Q 336.46 163.97 336.46 164.54
  Q 336.45 180.40 336.46 197.69
  C 336.46 199.14 337.65 199.86 339.01 199.40
  Q 340.50 198.91 340.50 200.48
  L 340.51 208.08
  Q 340.51 209.17 339.44 209.39
  Q 333.84 210.56 329.04 209.87
  Q 323.09 209.02 323.05 202.45
  Q 322.94 182.08 323.02 164.50
  Q 323.03 163.94 322.47 163.95
  L 319.75 163.99
  Q 319.00 164.01 319.00 163.25
  L 319.00 154.01
  A 0.49 0.49 0.0 0 1 319.49 153.52
  L 322.35 153.54
  Q 323.00 153.54 323.00 152.90
  Z"
/>
<path fill="#006536" d="
  M 192.73 198.77
  Q 193.34 198.90 193.99 198.64
  Q 195.83 197.90 196.14 195.94
  Q 196.95 190.79 193.66 187.75
  Q 189.08 183.53 181.92 177.99
  Q 178.99 175.72 177.84 173.15
  C 176.16 169.36 175.23 162.11 177.93 158.17
  C 183.39 150.20 194.35 148.94 202.60 152.32
  Q 205.32 153.43 207.66 156.91
  Q 210.72 161.46 210.29 168.01
  Q 210.25 168.55 209.71 168.55
  L 196.74 168.56
  Q 195.94 168.56 195.99 167.76
  Q 196.10 165.99 195.89 164.23
  C 195.63 162.06 193.86 160.34 191.64 161.45
  C 188.45 163.05 190.48 167.83 192.59 169.38
  Q 198.29 173.58 203.76 177.50
  C 205.57 178.80 206.64 180.80 207.91 182.60
  C 213.51 190.56 210.93 206.54 200.05 209.27
  Q 195.74 210.36 191.54 210.10
  C 178.61 209.33 175.26 199.71 176.07 188.60
  Q 176.12 187.99 176.73 187.99
  L 189.22 187.99
  Q 189.96 187.99 189.96 188.72
  L 190.01 195.42
  Q 190.03 198.18 192.73 198.77
  Z"
/>
<path fill="#006536" d="
  M 225.97 182.13
  L 226.06 195.90
  A 2.40 2.38 -67.0 0 0 226.72 197.55
  Q 229.80 200.83 232.33 197.36
  A 1.59 1.58 -26.9 0 0 232.64 196.42
  L 232.76 187.59
  A 0.65 0.64 -0.0 0 1 233.41 186.95
  L 245.77 186.96
  Q 246.31 186.96 246.36 187.50
  Q 246.85 193.88 244.85 201.10
  C 243.39 206.40 239.19 208.98 234.06 209.77
  C 219.20 212.04 212.18 204.75 212.19 190.45
  Q 212.20 177.80 212.26 165.83
  C 212.33 153.70 223.74 149.41 234.10 150.97
  Q 245.74 152.72 246.27 164.93
  Q 246.61 172.63 246.22 180.98
  Q 246.20 181.48 245.70 181.48
  L 226.63 181.47
  Q 225.97 181.47 225.97 182.13
  Z
  M 226.32 174.85
  L 232.40 174.83
  A 0.32 0.32 0.0 0 0 232.72 174.51
  L 232.71 165.95
  A 5.20 3.17 89.9 0 0 229.53 160.76
  L 229.15 160.76
  A 5.20 3.17 89.9 0 0 225.99 165.97
  L 226.00 174.53
  A 0.32 0.32 0.0 0 0 226.32 174.85
  Z"
/>
<path fill="#006536" d="
  M 303.08 204.66
  C 301.13 208.48 298.11 210.48 293.75 210.12
  Q 286.89 209.56 285.17 204.80
  C 282.82 198.30 282.77 188.82 284.84 182.15
  C 285.59 179.73 287.60 177.95 289.91 176.94
  Q 296.12 174.21 302.63 172.30
  Q 303.42 172.06 303.45 171.23
  Q 303.52 168.32 303.40 164.72
  Q 303.26 160.71 299.83 160.99
  A 2.18 2.16 -1.5 0 0 297.83 163.08
  L 297.67 167.76
  Q 297.65 168.43 296.98 168.43
  L 284.55 168.43
  A 0.39 0.39 0.0 0 1 284.16 168.05
  Q 284.12 164.77 284.45 161.33
  C 285.00 155.60 289.48 152.15 295.03 151.17
  C 301.45 150.04 308.30 150.42 313.30 154.90
  C 316.35 157.63 317.59 160.96 317.58 165.09
  Q 317.51 187.20 317.58 208.90
  Q 317.58 209.51 316.97 209.51
  L 304.14 209.51
  Q 303.53 209.50 303.53 208.89
  L 303.51 204.77
  Q 303.50 203.83 303.08 204.66
  Z
  M 299.70 180.70
  A 6.53 6.52 69.6 0 0 297.44 185.64
  L 297.44 195.75
  Q 297.44 198.04 299.87 198.99
  Q 300.95 199.41 302.54 198.01
  A 2.38 2.33 -21.0 0 0 303.35 196.24
  L 303.36 180.28
  Q 303.37 177.54 301.29 179.33
  Q 300.74 179.81 299.70 180.70
  Z"
/>
<path fill="#006536" d="
  M 142.27 204.86
  C 140.39 209.21 137.38 210.23 133.09 210.15
  C 129.04 210.07 126.04 208.56 124.41 204.59
  Q 122.75 200.54 122.76 197.00
  Q 122.79 183.27 122.61 169.37
  Q 122.59 167.17 122.41 164.91
  Q 122.30 163.47 122.52 162.13
  C 123.03 158.85 122.72 155.07 122.71 151.81
  Q 122.71 151.25 123.27 151.25
  L 136.02 151.25
  Q 136.54 151.25 136.54 151.77
  L 136.55 195.48
  A 2.63 2.56 30.9 0 0 136.89 196.76
  Q 138.32 199.32 139.88 199.03
  Q 142.98 198.46 142.99 194.78
  Q 143.05 173.27 143.07 151.72
  A 0.47 0.47 0.0 0 1 143.54 151.25
  L 156.43 151.24
  Q 156.86 151.24 156.86 151.68
  L 156.89 209.14
  A 0.37 0.36 90.0 0 1 156.53 209.51
  L 143.55 209.50
  Q 142.95 209.50 142.98 208.90
  Q 143.07 207.03 142.93 204.98
  Q 142.84 203.57 142.27 204.86
  Z"
/>
</svg>
